# MagicaVoxel @ Ephtracy

# group
o 

# material
mtllib dino-0.mtl
usemtl palette

# normals
vn -1 0 0
vn 1 0 0
vn 0 0 1
vn 0 0 -1
vn 0 -1 0
vn 0 1 0

# texcoords
vt 0.00195313 0.5
vt 0.197266 0.5
vt 0.224609 0.5
vt 0.318359 0.5
vt 0.392578 0.5
vt 0.462891 0.5
vt 0.533203 0.5
vt 0.623047 0.5
vt 0.650391 0.5
vt 0.865234 0.5
vt 0.876953 0.5

# verts
v -1.5 1.6 0
v -1.5 1.6 -0.1
v -1.5 1.7 0.1
v -1.5 1.7 0
v -1.5 1.7 -0.1
v -1.5 1.7 -0.2
v -1.5 1.8 0.1
v -1.5 1.8 -0.2
v -1.4 1.4 0.2
v -1.4 1.4 -0.3
v -1.4 1.5 0.2
v -1.4 1.5 -0.3
v -1.4 1.6 0.3
v -1.4 1.6 0
v -1.4 1.6 -0.1
v -1.4 1.6 -0.4
v -1.4 1.7 0.1
v -1.4 1.7 0
v -1.4 1.7 -0.1
v -1.4 1.7 -0.2
v -1.4 1.8 0.3
v -1.4 1.8 0.1
v -1.4 1.8 -0.2
v -1.4 1.8 -0.4
v -1.4 1.9 0.1
v -1.4 1.9 -0.2
v -1.3 1.4 0.3
v -1.3 1.4 0.2
v -1.3 1.4 -0.3
v -1.3 1.4 -0.4
v -1.3 1.5 0.3
v -1.3 1.5 0.2
v -1.3 1.5 0.1
v -1.3 1.5 -0.2
v -1.3 1.5 -0.3
v -1.3 1.5 -0.4
v -1.3 1.6 0.1
v -1.3 1.6 -0.2
v -1.3 1.8 0.3
v -1.3 1.8 0.1
v -1.3 1.8 -0.2
v -1.3 1.8 -0.4
v -1.3 1.9 0.3
v -1.3 1.9 0.2
v -1.3 1.9 0.1
v -1.3 1.9 -0.2
v -1.3 1.9 -0.3
v -1.3 1.9 -0.4
v -1.3 2 0.2
v -1.3 2 -0.3
v -1.2 0.7 0.3
v -1.2 0.7 0.2
v -1.2 0.7 -0.3
v -1.2 0.7 -0.4
v -1.2 0.8 0.3
v -1.2 0.8 0.2
v -1.2 0.8 -0.3
v -1.2 0.8 -0.4
v -1.2 1.9 -0.3
v -1.2 1.9 -0.4
v -1.2 2 -0.3
v -1.2 2 -0.4
v -1.1 0.8 0.3
v -1.1 0.8 0.2
v -1.1 0.8 -0.3
v -1.1 0.8 -0.4
v -1.1 0.9 0.3
v -1.1 0.9 0.2
v -1.1 0.9 -0.3
v -1.1 0.9 -0.4
v -1.1 1.2 0.3
v -1.1 1.2 -0.4
v -1.1 1.3 0.3
v -1.1 1.3 -0.4
v -1.1 1.4 0.3
v -1.1 1.4 -0.4
v -1.1 1.9 0.3
v -1.1 1.9 0.2
v -1.1 2 0.3
v -1.1 2 0.2
v -1.1 2 -0.3
v -1.1 2 -0.4
v -1.1 2.1 0.3
v -1.1 2.1 0.2
v -1.1 2.1 -0.3
v -1.1 2.1 -0.4
v -1 1.1 0.2
v -1 1.1 -0.4
v -1 1.2 0.2
v -1 1.2 -0.4
v -1 1.5 0.3
v -1 1.5 0.1
v -1 1.5 -0.2
v -1 1.5 -0.4
v -1 1.6 0.3
v -1 1.6 0.1
v -1 1.6 -0.2
v -1 1.6 -0.4
v -0.9 0.9 0.3
v -0.9 0.9 0.2
v -0.9 0.9 0.1
v -0.9 0.9 -0.3
v -0.9 0.9 -0.4
v -0.9 1 -0.2
v -0.9 1 -0.3
v -0.9 1.1 0.2
v -0.9 1.1 0.1
v -0.9 1.1 -0.2
v -0.9 1.1 -0.4
v -0.9 1.2 0.3
v -0.9 1.2 0.2
v -0.9 1.7 0.3
v -0.9 1.7 0.2
v -0.9 1.7 -0.3
v -0.9 1.7 -0.4
v -0.9 1.9 0.3
v -0.9 1.9 0.2
v -0.9 1.9 -0.3
v -0.9 1.9 -0.4
v -0.8 0.9 0.1
v -0.8 0.9 -0.3
v -0.8 1 -0.2
v -0.8 1 -0.3
v -0.8 1.1 0.1
v -0.8 1.1 -0.2
v -0.8 1.2 0.3
v -0.8 1.2 0.2
v -0.8 1.3 0.3
v -0.8 1.3 0.2
v -0.7 1.8 0.3
v -0.7 1.8 0.2
v -0.7 1.9 0.3
v -0.7 1.9 0.2
v -0.7 1.9 -0.3
v -0.7 1.9 -0.4
v -0.7 2 0.3
v -0.7 2 0.2
v -0.7 2 -0.3
v -0.7 2 -0.4
v -0.6 1.3 0.3
v -0.6 1.3 0.2
v -0.6 1.4 0.3
v -0.6 1.4 0.2
v -0.5 0 0.3
v -0.5 0 0
v -0.5 0 -0.1
v -0.5 0 -0.4
v -0.5 0.1 0.3
v -0.5 0.1 0
v -0.5 0.1 -0.1
v -0.5 0.1 -0.4
v -0.5 0.9 0.2
v -0.5 0.9 -0.3
v -0.5 1 0.2
v -0.5 1 -0.3
v -0.3 0.1 0.3
v -0.3 0.1 0
v -0.3 0.1 -0.1
v -0.3 0.1 -0.4
v -0.3 0.2 0.3
v -0.3 0.2 0
v -0.3 0.2 -0.1
v -0.3 0.2 -0.4
v -0.3 1.7 0.1
v -0.3 1.7 -0.2
v -0.3 1.8 0.1
v -0.3 1.8 -0.2
v -0.2 0.2 0.2
v -0.2 0.2 0.1
v -0.2 0.2 -0.2
v -0.2 0.2 -0.3
v -0.2 0.3 0.2
v -0.2 0.3 0.1
v -0.2 0.3 -0.2
v -0.2 0.3 -0.3
v -0.2 0.8 0.3
v -0.2 0.8 0
v -0.2 0.8 -0.1
v -0.2 0.8 -0.4
v -0.2 0.9 0.2
v -0.2 0.9 0
v -0.2 0.9 -0.1
v -0.2 0.9 -0.3
v -0.2 1 0.2
v -0.2 1 -0.3
v -0.2 1 -0.4
v -0.2 1.1 0.3
v -0.2 1.1 0.2
v -0.2 1.4 0.3
v -0.2 1.4 0.2
v -0.2 1.4 -0.3
v -0.2 1.4 -0.4
v -0.2 1.5 0.3
v -0.2 1.5 0.2
v -0.2 1.5 -0.3
v -0.2 1.5 -0.4
v -0.1 0.2 0.3
v -0.1 0.2 0.2
v -0.1 0.2 0.1
v -0.1 0.2 0
v -0.1 0.2 -0.1
v -0.1 0.2 -0.2
v -0.1 0.2 -0.3
v -0.1 0.2 -0.4
v -0.1 0.3 0.3
v -0.1 0.3 0.2
v -0.1 0.3 0.1
v -0.1 0.3 0
v -0.1 0.3 -0.1
v -0.1 0.3 -0.2
v -0.1 0.3 -0.3
v -0.1 0.3 -0.4
v -0.1 0.5 0.2
v -0.1 0.5 0.1
v -0.1 0.5 -0.2
v -0.1 0.5 -0.3
v -0.1 0.7 0.3
v -0.1 0.7 0
v -0.1 0.7 -0.1
v -0.1 0.7 -0.4
v -0.1 0.8 0.3
v -0.1 0.8 0
v -0.1 0.8 -0.1
v -0.1 0.8 -0.4
v -0.1 1.1 0.3
v -0.1 1.1 0.2
v -0.1 1.2 0.3
v -0.1 1.2 0.2
v -0.1 1.5 0.3
v -0.1 1.5 0.2
v -0.1 1.5 -0.3
v -0.1 1.5 -0.4
v -0.1 1.6 0.3
v -0.1 1.6 0.2
v -0.1 1.6 -0.3
v -0.1 1.6 -0.4
v 0 0.3 0.3
v 0 0.3 0.2
v 0 0.3 -0.3
v 0 0.3 -0.4
v 0 0.4 0.3
v 0 0.4 0.2
v 0 0.4 0.1
v 0 0.4 0
v 0 0.4 -0.1
v 0 0.4 -0.2
v 0 0.4 -0.3
v 0 0.4 -0.4
v 0 0.5 0.2
v 0 0.5 0.1
v 0 0.5 0
v 0 0.5 -0.1
v 0 0.5 -0.2
v 0 0.5 -0.3
v 0 0.6 -0.3
v 0 0.6 -0.4
v 0 0.7 0.2
v 0 0.7 0
v 0 0.7 -0.1
v 0 0.7 -0.4
v 0 1.2 0.3
v 0 1.2 0.2
v 0 1.3 0.3
v 0 1.3 0.2
v 0.1 0.5 0.3
v 0.1 0.5 0.2
v 0.1 0.5 -0.3
v 0.1 0.5 -0.4
v 0.1 0.6 -0.3
v 0.1 0.6 -0.4
v 0.1 0.7 0.3
v 0.1 0.7 0.2
v 0.5 0.9 0.2
v 0.5 0.9 0
v 0.5 0.9 -0.1
v 0.5 0.9 -0.3
v 0.5 1 0.2
v 0.5 1 0
v 0.5 1 -0.1
v 0.5 1 -0.3
v 0.8 1.3 -0.2
v 0.8 1.3 -0.3
v 0.8 1.5 -0.2
v 0.8 1.5 -0.3
v -1.1 1.7 0.3
v -1.1 1.7 0.2
v -1.1 1.7 -0.3
v -1.1 1.7 -0.4
v -1.1 1.8 0.2
v -1.1 1.8 -0.3
v -1.1 1.9 0.3
v -1.1 1.9 0.2
v -1.1 1.9 -0.3
v -1.1 1.9 -0.4
v -1 1.9 0.3
v -1 1.9 0.2
v -1 1.9 -0.3
v -1 1.9 -0.4
v -1 2 0.3
v -1 2 0.2
v -1 2 -0.3
v -1 2 -0.4
v -1 2.1 0.3
v -1 2.1 0.2
v -1 2.1 -0.3
v -1 2.1 -0.4
v -0.9 0.7 0.3
v -0.9 0.7 0.2
v -0.9 0.7 -0.3
v -0.9 0.7 -0.4
v -0.9 0.8 0.3
v -0.9 0.8 0.2
v -0.9 0.8 -0.3
v -0.9 0.8 -0.4
v -0.9 1.2 0.3
v -0.9 1.2 0.2
v -0.9 1.3 0.3
v -0.9 1.3 0.2
v -0.9 1.9 0.2
v -0.9 1.9 0.1
v -0.9 1.9 -0.2
v -0.9 1.9 -0.3
v -0.9 2 0.2
v -0.9 2 0.1
v -0.9 2 -0.2
v -0.9 2 -0.3
v -0.8 1.3 0.3
v -0.8 1.3 0.2
v -0.8 1.4 0.3
v -0.8 1.4 0.2
v -0.8 1.8 0.3
v -0.8 1.8 0.1
v -0.8 1.8 -0.2
v -0.8 1.8 -0.3
v -0.8 1.9 0.3
v -0.8 1.9 0.1
v -0.8 1.9 -0.2
v -0.8 1.9 -0.3
v -0.8 2 0.1
v -0.8 2 -0.2
v -0.7 0.8 0.3
v -0.7 0.8 0.2
v -0.7 0.8 -0.3
v -0.7 0.8 -0.4
v -0.7 0.9 0.2
v -0.7 0.9 -0.3
v -0.7 1 0.3
v -0.7 1 -0.4
v -0.6 1 0.3
v -0.6 1 0.2
v -0.6 1.1 0.3
v -0.6 1.1 0.2
v -0.6 1.2 0.3
v -0.6 1.2 0.2
v -0.6 1.3 0.3
v -0.6 1.3 0.2
v -0.6 1.8 0.3
v -0.6 1.8 0.2
v -0.6 1.8 -0.3
v -0.6 1.8 -0.4
v -0.6 1.9 0.3
v -0.6 1.9 0.2
v -0.6 1.9 -0.3
v -0.6 1.9 -0.4
v -0.6 2 0.3
v -0.6 2 0.2
v -0.6 2 -0.3
v -0.6 2 -0.4
v -0.5 1.7 0.2
v -0.5 1.7 -0.3
v -0.5 1.8 0.2
v -0.5 1.8 0.1
v -0.5 1.8 -0.2
v -0.5 1.8 -0.3
v -0.5 1.9 0.1
v -0.5 1.9 -0.2
v -0.4 1.7 0.3
v -0.4 1.7 0.2
v -0.4 1.7 -0.3
v -0.4 1.7 -0.4
v -0.4 1.8 0.3
v -0.4 1.8 0.2
v -0.4 1.8 -0.3
v -0.4 1.8 -0.4
v -0.3 1.4 0.3
v -0.3 1.4 0.2
v -0.3 1.4 -0.3
v -0.3 1.4 -0.4
v -0.3 1.6 0.3
v -0.3 1.6 0.2
v -0.3 1.6 -0.3
v -0.3 1.6 -0.4
v -0.3 1.7 0.3
v -0.3 1.7 0.2
v -0.3 1.7 -0.3
v -0.3 1.7 -0.4
v 0.1 0.1 0.3
v 0.1 0.1 0.2
v 0.1 0.1 0.1
v 0.1 0.1 0
v 0.1 0.1 -0.1
v 0.1 0.1 -0.2
v 0.1 0.1 -0.3
v 0.1 0.1 -0.4
v 0.1 0.2 0.2
v 0.1 0.2 0.1
v 0.1 0.2 -0.2
v 0.1 0.2 -0.3
v 0.1 0.3 0.2
v 0.1 0.3 0.1
v 0.1 0.3 0
v 0.1 0.3 -0.1
v 0.1 0.3 -0.2
v 0.1 0.3 -0.3
v 0.1 0.4 0.3
v 0.1 0.4 0.2
v 0.1 0.4 0.1
v 0.1 0.4 0
v 0.1 0.4 -0.3
v 0.1 0.4 -0.4
v 0.1 0.5 0.1
v 0.1 0.5 0
v 0.2 0 0.3
v 0.2 0 0
v 0.2 0 -0.1
v 0.2 0 -0.4
v 0.2 0.1 0.3
v 0.2 0.1 0.2
v 0.2 0.1 0.1
v 0.2 0.1 0
v 0.2 0.1 -0.1
v 0.2 0.1 -0.2
v 0.2 0.1 -0.3
v 0.2 0.1 -0.4
v 0.2 0.2 0.2
v 0.2 0.2 0.1
v 0.2 0.2 -0.2
v 0.2 0.2 -0.3
v 0.2 0.3 0.2
v 0.2 0.3 0.1
v 0.2 0.3 -0.2
v 0.2 0.3 -0.3
v 0.2 0.4 0.2
v 0.2 0.4 0.1
v 0.2 0.4 -0.1
v 0.2 0.4 -0.2
v 0.2 0.4 -0.3
v 0.2 0.5 0.3
v 0.2 0.5 0.2
v 0.2 0.5 0.1
v 0.2 0.5 0
v 0.2 0.5 -0.2
v 0.2 0.5 -0.3
v 0.2 0.5 -0.4
v 0.2 0.7 0.3
v 0.2 0.7 0.2
v 0.2 0.7 0.1
v 0.2 0.7 0
v 0.2 0.7 -0.1
v 0.2 0.7 -0.2
v 0.2 0.7 -0.3
v 0.2 0.7 -0.4
v 0.2 1.5 0.3
v 0.2 1.5 0.2
v 0.2 1.5 -0.3
v 0.2 1.5 -0.4
v 0.2 1.6 0.3
v 0.2 1.6 0.2
v 0.2 1.6 -0.3
v 0.2 1.6 -0.4
v 0.3 0.4 0.2
v 0.3 0.4 0.1
v 0.3 0.4 -0.2
v 0.3 0.4 -0.3
v 0.3 0.5 0.2
v 0.3 0.5 0.1
v 0.3 0.5 -0.2
v 0.3 0.5 -0.3
v 0.3 0.7 0.3
v 0.3 0.7 0.2
v 0.3 0.7 0.1
v 0.3 0.7 0
v 0.3 0.7 -0.1
v 0.3 0.7 -0.2
v 0.3 0.7 -0.3
v 0.3 0.7 -0.4
v 0.3 0.8 0.3
v 0.3 0.8 0.2
v 0.3 0.8 0.1
v 0.3 0.8 0
v 0.3 0.8 -0.1
v 0.3 0.8 -0.2
v 0.3 0.8 -0.3
v 0.3 0.8 -0.4
v 0.3 0.9 0.3
v 0.3 0.9 0
v 0.3 0.9 -0.1
v 0.3 0.9 -0.4
v 0.3 1.2 0.3
v 0.3 1.2 0.2
v 0.3 1.2 -0.3
v 0.3 1.2 -0.4
v 0.3 1.3 0.3
v 0.3 1.3 0.2
v 0.3 1.3 0.1
v 0.3 1.3 -0.2
v 0.3 1.3 -0.3
v 0.3 1.3 -0.4
v 0.3 1.5 0.3
v 0.3 1.5 0.2
v 0.3 1.5 -0.3
v 0.3 1.5 -0.4
v 0.3 1.6 0.1
v 0.3 1.6 0
v 0.3 1.6 -0.1
v 0.3 1.6 -0.2
v 0.3 1.7 0.2
v 0.3 1.7 0.1
v 0.3 1.7 0
v 0.3 1.7 -0.1
v 0.3 1.7 -0.2
v 0.3 1.7 -0.3
v 0.3 1.8 0.1
v 0.3 1.8 -0.2
v 0.4 0.5 0.2
v 0.4 0.5 0.1
v 0.4 0.5 -0.2
v 0.4 0.5 -0.3
v 0.4 0.8 0.2
v 0.4 0.8 0.1
v 0.4 0.8 -0.2
v 0.4 0.8 -0.3
v 0.4 0.9 0.3
v 0.4 0.9 -0.4
v 0.4 1 0.3
v 0.4 1 -0.4
v 0.4 1.1 0.3
v 0.4 1.1 0.2
v 0.4 1.1 -0.3
v 0.4 1.1 -0.4
v 0.4 1.2 0.3
v 0.4 1.2 0.2
v 0.4 1.2 -0.3
v 0.4 1.2 -0.4
v 0.5 1 0.3
v 0.5 1 0.2
v 0.5 1 -0.3
v 0.5 1 -0.4
v 0.5 1.1 0.3
v 0.5 1.1 0.2
v 0.5 1.1 -0.3
v 0.5 1.1 -0.4
v 0.7 0.9 0.2
v 0.7 0.9 0
v 0.7 0.9 -0.1
v 0.7 0.9 -0.3
v 0.7 1 0.1
v 0.7 1 0
v 0.7 1 -0.1
v 0.7 1 -0.2
v 0.7 1.1 0.2
v 0.7 1.1 0.1
v 0.7 1.1 -0.2
v 0.7 1.1 -0.3
v 0.7 1.6 0
v 0.7 1.6 -0.1
v 0.7 1.7 0
v 0.7 1.7 -0.1
v 0.9 1 0.1
v 0.9 1 0
v 0.9 1 -0.1
v 0.9 1 -0.2
v 0.9 1.1 0.2
v 0.9 1.1 0.1
v 0.9 1.1 0
v 0.9 1.1 -0.1
v 0.9 1.1 -0.2
v 0.9 1.1 -0.3
v 0.9 1.2 0.2
v 0.9 1.2 0.1
v 0.9 1.2 -0.2
v 0.9 1.2 -0.3
v 0.9 1.3 0.2
v 0.9 1.3 0.1
v 0.9 1.5 0.1
v 0.9 1.5 0
v 0.9 1.5 -0.1
v 0.9 1.5 -0.2
v 0.9 1.5 -0.3
v 0.9 1.6 0.1
v 0.9 1.6 0
v 0.9 1.6 -0.1
v 0.9 1.6 -0.2
v 1 1.4 0.1
v 1 1.4 0
v 1 1.4 -0.1
v 1 1.4 -0.2
v 1 1.5 0.1
v 1 1.5 0
v 1 1.5 -0.1
v 1 1.5 -0.2
v 1 1.6 0
v 1 1.6 -0.1
v 1.1 1.1 0.1
v 1.1 1.1 0
v 1.1 1.1 -0.1
v 1.1 1.1 -0.2
v 1.1 1.2 0.1
v 1.1 1.2 0
v 1.1 1.2 -0.1
v 1.1 1.2 -0.2
v 1.1 1.3 0
v 1.1 1.3 -0.1
v 1.1 1.3 -0.2
v 1.1 1.4 0.1
v 1.1 1.4 0
v 1.2 1 0
v 1.2 1 -0.1
v 1.2 1.1 0
v 1.2 1.1 -0.1
v 1.2 1.3 -0.1
v 1.2 1.3 -0.2
v 1.2 1.4 0
v 1.2 1.4 -0.1
v 1.2 1.4 -0.2
v 1.2 1.5 0
v 1.2 1.5 -0.1
v 1.4 1.1 0
v 1.4 1.1 -0.1
v 1.4 1.2 0
v 1.4 1.2 -0.1
v 1.5 1.2 0
v 1.5 1.2 -0.1
v 1.5 1.4 0
v 1.5 1.4 -0.1
v -1.4 1.6 0.3
v -1.4 1.8 0.3
v -1.3 1.4 0.3
v -1.3 1.5 0.3
v -1.3 1.8 0.3
v -1.3 1.9 0.3
v -1.2 0.7 0.3
v -1.2 0.8 0.3
v -1.1 0.7 0.3
v -1.1 0.8 0.3
v -1.1 0.9 0.3
v -1.1 1.2 0.3
v -1.1 1.3 0.3
v -1.1 1.4 0.3
v -1.1 1.7 0.3
v -1.1 1.9 0.3
v -1.1 2 0.3
v -1.1 2.1 0.3
v -1 1.3 0.3
v -1 1.5 0.3
v -1 1.6 0.3
v -1 1.9 0.3
v -1 2 0.3
v -1 2.1 0.3
v -0.9 0.7 0.3
v -0.9 0.8 0.3
v -0.9 0.9 0.3
v -0.9 1.2 0.3
v -0.9 1.3 0.3
v -0.9 1.6 0.3
v -0.9 1.7 0.3
v -0.9 1.9 0.3
v -0.8 0.9 0.3
v -0.8 1.1 0.3
v -0.8 1.2 0.3
v -0.8 1.3 0.3
v -0.8 1.4 0.3
v -0.8 1.5 0.3
v -0.8 1.6 0.3
v -0.8 1.7 0.3
v -0.8 1.8 0.3
v -0.8 1.9 0.3
v -0.7 0.8 0.3
v -0.7 1 0.3
v -0.7 1.5 0.3
v -0.7 1.8 0.3
v -0.7 1.9 0.3
v -0.7 2 0.3
v -0.6 1 0.3
v -0.6 1.1 0.3
v -0.6 1.2 0.3
v -0.6 1.3 0.3
v -0.6 1.4 0.3
v -0.6 1.5 0.3
v -0.6 1.8 0.3
v -0.6 1.9 0.3
v -0.6 2 0.3
v -0.5 0 0.3
v -0.5 0.1 0.3
v -0.5 1.7 0.3
v -0.5 1.8 0.3
v -0.4 1.6 0.3
v -0.4 1.7 0.3
v -0.4 1.8 0.3
v -0.3 0.1 0.3
v -0.3 0.2 0.3
v -0.3 1.4 0.3
v -0.3 1.6 0.3
v -0.3 1.7 0.3
v -0.2 0.1 0.3
v -0.2 0.2 0.3
v -0.2 0.8 0.3
v -0.2 1.1 0.3
v -0.2 1.4 0.3
v -0.2 1.5 0.3
v -0.1 0.2 0.3
v -0.1 0.3 0.3
v -0.1 0.7 0.3
v -0.1 0.8 0.3
v -0.1 1 0.3
v -0.1 1.1 0.3
v -0.1 1.2 0.3
v -0.1 1.5 0.3
v -0.1 1.6 0.3
v 0 0.3 0.3
v 0 0.4 0.3
v 0 0.7 0.3
v 0 0.8 0.3
v 0 1 0.3
v 0 1.2 0.3
v 0 1.3 0.3
v 0.1 0.1 0.3
v 0.1 0.4 0.3
v 0.1 0.5 0.3
v 0.1 0.7 0.3
v 0.1 1.1 0.3
v 0.1 1.2 0.3
v 0.2 0 0.3
v 0.2 0.1 0.3
v 0.2 0.5 0.3
v 0.2 0.7 0.3
v 0.2 0.8 0.3
v 0.2 1 0.3
v 0.2 1.1 0.3
v 0.2 1.2 0.3
v 0.2 1.3 0.3
v 0.2 1.5 0.3
v 0.2 1.6 0.3
v 0.3 0.7 0.3
v 0.3 0.8 0.3
v 0.3 0.9 0.3
v 0.3 1 0.3
v 0.3 1.2 0.3
v 0.3 1.3 0.3
v 0.3 1.5 0.3
v 0.4 0.9 0.3
v 0.4 1 0.3
v 0.4 1.1 0.3
v 0.4 1.2 0.3
v 0.5 1 0.3
v 0.5 1.1 0.3
v -1.4 1.4 0.2
v -1.4 1.5 0.2
v -1.3 1.4 0.2
v -1.3 1.5 0.2
v -1.3 1.9 0.2
v -1.3 2 0.2
v -1.1 1.7 0.2
v -1.1 1.8 0.2
v -1.1 1.9 0.2
v -1.1 2 0.2
v -1 1.1 0.2
v -1 1.2 0.2
v -1 1.8 0.2
v -1 1.9 0.2
v -1 2 0.2
v -0.9 1.1 0.2
v -0.9 1.2 0.2
v -0.9 1.3 0.2
v -0.9 1.7 0.2
v -0.9 1.9 0.2
v -0.9 2 0.2
v -0.8 1.2 0.2
v -0.8 1.3 0.2
v -0.8 1.4 0.2
v -0.6 1 0.2
v -0.6 1.1 0.2
v -0.6 1.2 0.2
v -0.6 1.3 0.2
v -0.6 1.4 0.2
v -0.5 0.9 0.2
v -0.5 1 0.2
v -0.5 1.1 0.2
v -0.5 1.2 0.2
v -0.5 1.3 0.2
v -0.3 1.4 0.2
v -0.3 1.6 0.2
v -0.3 1.7 0.2
v -0.2 0.2 0.2
v -0.2 0.3 0.2
v -0.2 0.9 0.2
v -0.2 1 0.2
v -0.2 1.1 0.2
v -0.2 1.4 0.2
v -0.2 1.5 0.2
v -0.1 0.2 0.2
v -0.1 0.3 0.2
v -0.1 0.5 0.2
v -0.1 1.1 0.2
v -0.1 1.2 0.2
v -0.1 1.5 0.2
v -0.1 1.6 0.2
v 0 0.3 0.2
v 0 0.4 0.2
v 0 0.5 0.2
v 0 0.7 0.2
v 0 1.2 0.2
v 0 1.3 0.2
v 0.1 0.1 0.2
v 0.1 0.2 0.2
v 0.1 0.3 0.2
v 0.1 0.4 0.2
v 0.1 0.5 0.2
v 0.1 0.7 0.2
v 0.2 0.1 0.2
v 0.2 0.2 0.2
v 0.2 0.3 0.2
v 0.2 0.4 0.2
v 0.2 0.5 0.2
v 0.2 0.7 0.2
v 0.2 1.5 0.2
v 0.2 1.6 0.2
v 0.3 0.4 0.2
v 0.3 0.5 0.2
v 0.3 0.7 0.2
v 0.3 0.8 0.2
v 0.3 1.2 0.2
v 0.3 1.3 0.2
v 0.3 1.5 0.2
v 0.3 1.7 0.2
v 0.4 0.5 0.2
v 0.4 0.8 0.2
v 0.4 1.1 0.2
v 0.4 1.2 0.2
v 0.5 0.9 0.2
v 0.5 1 0.2
v 0.5 1.1 0.2
v 0.6 1 0.2
v 0.6 1.1 0.2
v 0.7 0.9 0.2
v 0.7 1.1 0.2
v 0.8 1.2 0.2
v 0.8 1.3 0.2
v 0.9 1.1 0.2
v 0.9 1.2 0.2
v 0.9 1.3 0.2
v -1.5 1.7 0.1
v -1.5 1.8 0.1
v -1.4 1.7 0.1
v -1.4 1.8 0.1
v -1.4 1.9 0.1
v -1.3 1.5 0.1
v -1.3 1.6 0.1
v -1.3 1.8 0.1
v -1.3 1.9 0.1
v -1 1.5 0.1
v -1 1.6 0.1
v -0.9 1.9 0.1
v -0.9 2 0.1
v -0.8 1.8 0.1
v -0.8 1.9 0.1
v -0.8 2 0.1
v -0.7 1.8 0.1
v -0.7 1.9 0.1
v -0.6 1.8 0.1
v -0.6 1.9 0.1
v -0.5 1.8 0.1
v -0.5 1.9 0.1
v -0.3 1.7 0.1
v -0.3 1.8 0.1
v 0.3 1.3 0.1
v 0.3 1.6 0.1
v 0.3 1.7 0.1
v 0.3 1.8 0.1
v 0.7 1 0.1
v 0.7 1.1 0.1
v 0.7 1.5 0.1
v 0.7 1.6 0.1
v 0.8 1.3 0.1
v 0.9 1 0.1
v 0.9 1.1 0.1
v 0.9 1.2 0.1
v 0.9 1.3 0.1
v 0.9 1.5 0.1
v 0.9 1.6 0.1
v 1 1.4 0.1
v 1 1.5 0.1
v 1.1 1.1 0.1
v 1.1 1.2 0.1
v 1.1 1.4 0.1
v -1.5 1.6 0
v -1.5 1.7 0
v -1.4 1.6 0
v -1.4 1.7 0
v 0.3 1.6 0
v 0.3 1.7 0
v 0.6 1.6 0
v 0.6 1.7 0
v 0.7 1.6 0
v 0.7 1.7 0
v 0.9 1 0
v 0.9 1.1 0
v 0.9 1.5 0
v 0.9 1.6 0
v 1 1.4 0
v 1 1.5 0
v 1 1.6 0
v 1.1 1.1 0
v 1.1 1.2 0
v 1.1 1.3 0
v 1.1 1.4 0
v 1.2 1 0
v 1.2 1.1 0
v 1.2 1.2 0
v 1.2 1.3 0
v 1.2 1.4 0
v 1.2 1.5 0
v 1.4 1.1 0
v 1.4 1.2 0
v 1.4 1.3 0
v 1.5 1.2 0
v 1.5 1.4 0
v -0.5 0 -0.1
v -0.5 0.1 -0.1
v -0.3 0.1 -0.1
v -0.3 0.2 -0.1
v -0.2 0.1 -0.1
v -0.2 0.2 -0.1
v -0.2 0.8 -0.1
v -0.2 0.9 -0.1
v -0.1 0.2 -0.1
v -0.1 0.3 -0.1
v -0.1 0.7 -0.1
v -0.1 0.8 -0.1
v -0.1 0.9 -0.1
v 0 0.4 -0.1
v 0 0.5 -0.1
v 0 0.7 -0.1
v 0 0.8 -0.1
v 0.1 0.1 -0.1
v 0.1 0.3 -0.1
v 0.1 0.5 -0.1
v 0.1 0.7 -0.1
v 0.2 0 -0.1
v 0.2 0.1 -0.1
v 0.2 0.4 -0.1
v 0.2 0.7 -0.1
v 0.2 0.8 -0.1
v 0.2 0.9 -0.1
v 0.3 0.7 -0.1
v 0.3 0.8 -0.1
v 0.3 0.9 -0.1
v 0.5 0.9 -0.1
v 0.5 1 -0.1
v 0.6 1 -0.1
v 0.7 0.9 -0.1
v 0.7 1 -0.1
v -0.9 1 -0.2
v -0.9 1.1 -0.2
v -0.8 1 -0.2
v -0.8 1.1 -0.2
v -0.2 0.2 -0.2
v -0.2 0.3 -0.2
v -0.1 0.2 -0.2
v -0.1 0.3 -0.2
v -0.1 0.5 -0.2
v 0 0.3 -0.2
v 0 0.4 -0.2
v 0 0.5 -0.2
v 0.1 0.1 -0.2
v 0.1 0.2 -0.2
v 0.1 0.3 -0.2
v 0.1 0.4 -0.2
v 0.2 0.1 -0.2
v 0.2 0.2 -0.2
v 0.2 0.3 -0.2
v 0.2 0.4 -0.2
v 0.2 0.5 -0.2
v 0.2 0.7 -0.2
v 0.3 0.4 -0.2
v 0.3 0.5 -0.2
v 0.3 0.7 -0.2
v 0.3 0.8 -0.2
v 0.4 0.5 -0.2
v 0.4 0.8 -0.2
v -1.2 0.7 -0.3
v -1.2 0.8 -0.3
v -1.1 0.7 -0.3
v -1.1 0.8 -0.3
v -1.1 0.9 -0.3
v -1.1 2 -0.3
v -1.1 2.1 -0.3
v -1 2 -0.3
v -1 2.1 -0.3
v -0.9 0.7 -0.3
v -0.9 0.8 -0.3
v -0.9 0.9 -0.3
v -0.9 1 -0.3
v -0.8 0.9 -0.3
v -0.8 1 -0.3
v -0.8 1.8 -0.3
v -0.8 1.9 -0.3
v -0.7 0.8 -0.3
v -0.7 0.9 -0.3
v -0.7 1.8 -0.3
v -0.7 1.9 -0.3
v -0.7 2 -0.3
v -0.6 1.8 -0.3
v -0.6 1.9 -0.3
v -0.6 2 -0.3
v -0.5 1.7 -0.3
v -0.5 1.8 -0.3
v -0.4 1.7 -0.3
v -0.4 1.8 -0.3
v -1.2 0.7 0.2
v -1.2 0.8 0.2
v -1.1 0.7 0.2
v -1.1 0.8 0.2
v -1.1 0.9 0.2
v -1.1 2 0.2
v -1.1 2.1 0.2
v -1 2 0.2
v -1 2.1 0.2
v -0.9 0.7 0.2
v -0.9 0.8 0.2
v -0.9 0.9 0.2
v -0.8 0.9 0.2
v -0.7 0.8 0.2
v -0.7 0.9 0.2
v -0.7 1.8 0.2
v -0.7 1.9 0.2
v -0.7 2 0.2
v -0.6 1.8 0.2
v -0.6 1.9 0.2
v -0.6 2 0.2
v -0.5 1.7 0.2
v -0.5 1.8 0.2
v -0.4 1.7 0.2
v -0.4 1.8 0.2
v -0.9 0.9 0.1
v -0.9 1.1 0.1
v -0.8 0.9 0.1
v -0.8 1.1 0.1
v -0.2 0.2 0.1
v -0.2 0.3 0.1
v -0.1 0.2 0.1
v -0.1 0.3 0.1
v -0.1 0.5 0.1
v 0 0.3 0.1
v 0 0.4 0.1
v 0 0.5 0.1
v 0.1 0.1 0.1
v 0.1 0.2 0.1
v 0.1 0.3 0.1
v 0.1 0.4 0.1
v 0.1 0.5 0.1
v 0.2 0.1 0.1
v 0.2 0.2 0.1
v 0.2 0.3 0.1
v 0.2 0.4 0.1
v 0.2 0.5 0.1
v 0.2 0.7 0.1
v 0.3 0.4 0.1
v 0.3 0.5 0.1
v 0.3 0.7 0.1
v 0.3 0.8 0.1
v 0.4 0.5 0.1
v 0.4 0.8 0.1
v -0.5 0 0
v -0.5 0.1 0
v -0.3 0.1 0
v -0.3 0.2 0
v -0.2 0.1 0
v -0.2 0.2 0
v -0.2 0.8 0
v -0.2 0.9 0
v -0.1 0.2 0
v -0.1 0.3 0
v -0.1 0.7 0
v -0.1 0.8 0
v -0.1 0.9 0
v 0 0.4 0
v 0 0.5 0
v 0 0.7 0
v 0 0.8 0
v 0.1 0.1 0
v 0.1 0.3 0
v 0.1 0.4 0
v 0.1 0.5 0
v 0.1 0.7 0
v 0.2 0 0
v 0.2 0.1 0
v 0.2 0.5 0
v 0.2 0.7 0
v 0.2 0.8 0
v 0.2 0.9 0
v 0.3 0.7 0
v 0.3 0.8 0
v 0.3 0.9 0
v 0.5 0.9 0
v 0.5 1 0
v 0.6 1 0
v 0.7 0.9 0
v 0.7 1 0
v -1.5 1.6 -0.1
v -1.5 1.7 -0.1
v -1.4 1.6 -0.1
v -1.4 1.7 -0.1
v 0.3 1.6 -0.1
v 0.3 1.7 -0.1
v 0.6 1.6 -0.1
v 0.6 1.7 -0.1
v 0.7 1.6 -0.1
v 0.7 1.7 -0.1
v 0.9 1 -0.1
v 0.9 1.1 -0.1
v 0.9 1.5 -0.1
v 0.9 1.6 -0.1
v 1 1.4 -0.1
v 1 1.5 -0.1
v 1 1.6 -0.1
v 1.1 1.1 -0.1
v 1.1 1.2 -0.1
v 1.1 1.3 -0.1
v 1.2 1 -0.1
v 1.2 1.1 -0.1
v 1.2 1.2 -0.1
v 1.2 1.3 -0.1
v 1.2 1.4 -0.1
v 1.2 1.5 -0.1
v 1.4 1.1 -0.1
v 1.4 1.2 -0.1
v 1.4 1.3 -0.1
v 1.5 1.2 -0.1
v 1.5 1.4 -0.1
v -1.5 1.7 -0.2
v -1.5 1.8 -0.2
v -1.4 1.7 -0.2
v -1.4 1.8 -0.2
v -1.4 1.9 -0.2
v -1.3 1.5 -0.2
v -1.3 1.6 -0.2
v -1.3 1.8 -0.2
v -1.3 1.9 -0.2
v -1 1.5 -0.2
v -1 1.6 -0.2
v -0.9 1.9 -0.2
v -0.9 2 -0.2
v -0.8 1.8 -0.2
v -0.8 1.9 -0.2
v -0.8 2 -0.2
v -0.7 1.8 -0.2
v -0.7 1.9 -0.2
v -0.6 1.8 -0.2
v -0.6 1.9 -0.2
v -0.5 1.8 -0.2
v -0.5 1.9 -0.2
v -0.3 1.7 -0.2
v -0.3 1.8 -0.2
v 0.3 1.3 -0.2
v 0.3 1.6 -0.2
v 0.3 1.7 -0.2
v 0.3 1.8 -0.2
v 0.7 1 -0.2
v 0.7 1.1 -0.2
v 0.7 1.5 -0.2
v 0.7 1.6 -0.2
v 0.8 1.3 -0.2
v 0.8 1.5 -0.2
v 0.9 1 -0.2
v 0.9 1.1 -0.2
v 0.9 1.2 -0.2
v 0.9 1.5 -0.2
v 0.9 1.6 -0.2
v 1 1.4 -0.2
v 1 1.5 -0.2
v 1.1 1.1 -0.2
v 1.1 1.2 -0.2
v 1.1 1.3 -0.2
v 1.2 1.3 -0.2
v 1.2 1.4 -0.2
v -1.4 1.4 -0.3
v -1.4 1.5 -0.3
v -1.3 1.4 -0.3
v -1.3 1.5 -0.3
v -1.3 1.9 -0.3
v -1.3 2 -0.3
v -1.2 1.9 -0.3
v -1.2 2 -0.3
v -1.1 1.7 -0.3
v -1.1 1.8 -0.3
v -1.1 1.9 -0.3
v -1 1.8 -0.3
v -1 1.9 -0.3
v -1 2 -0.3
v -0.9 1.7 -0.3
v -0.9 1.9 -0.3
v -0.9 2 -0.3
v -0.5 0.9 -0.3
v -0.5 1 -0.3
v -0.3 1.4 -0.3
v -0.3 1.6 -0.3
v -0.3 1.7 -0.3
v -0.2 0.2 -0.3
v -0.2 0.3 -0.3
v -0.2 0.9 -0.3
v -0.2 1 -0.3
v -0.2 1.4 -0.3
v -0.2 1.5 -0.3
v -0.1 0.2 -0.3
v -0.1 0.3 -0.3
v -0.1 0.5 -0.3
v -0.1 1.5 -0.3
v -0.1 1.6 -0.3
v 0 0.3 -0.3
v 0 0.4 -0.3
v 0 0.5 -0.3
v 0 0.6 -0.3
v 0.1 0.1 -0.3
v 0.1 0.2 -0.3
v 0.1 0.3 -0.3
v 0.1 0.4 -0.3
v 0.1 0.5 -0.3
v 0.1 0.6 -0.3
v 0.2 0.1 -0.3
v 0.2 0.2 -0.3
v 0.2 0.3 -0.3
v 0.2 0.4 -0.3
v 0.2 0.5 -0.3
v 0.2 0.7 -0.3
v 0.2 1.5 -0.3
v 0.2 1.6 -0.3
v 0.3 0.4 -0.3
v 0.3 0.5 -0.3
v 0.3 0.7 -0.3
v 0.3 0.8 -0.3
v 0.3 1.2 -0.3
v 0.3 1.3 -0.3
v 0.3 1.5 -0.3
v 0.3 1.7 -0.3
v 0.4 0.5 -0.3
v 0.4 0.8 -0.3
v 0.4 1.1 -0.3
v 0.4 1.2 -0.3
v 0.5 0.9 -0.3
v 0.5 1 -0.3
v 0.5 1.1 -0.3
v 0.6 1 -0.3
v 0.6 1.1 -0.3
v 0.7 0.9 -0.3
v 0.7 1.1 -0.3
v 0.8 1.2 -0.3
v 0.8 1.3 -0.3
v 0.8 1.5 -0.3
v 0.9 1.1 -0.3
v 0.9 1.2 -0.3
v 0.9 1.5 -0.3
v -1.4 1.6 -0.4
v -1.4 1.8 -0.4
v -1.3 1.4 -0.4
v -1.3 1.5 -0.4
v -1.3 1.8 -0.4
v -1.3 1.9 -0.4
v -1.2 0.7 -0.4
v -1.2 0.8 -0.4
v -1.2 1.9 -0.4
v -1.2 2 -0.4
v -1.1 0.7 -0.4
v -1.1 0.8 -0.4
v -1.1 0.9 -0.4
v -1.1 1.2 -0.4
v -1.1 1.3 -0.4
v -1.1 1.4 -0.4
v -1.1 1.7 -0.4
v -1.1 1.9 -0.4
v -1.1 2 -0.4
v -1.1 2.1 -0.4
v -1 1.1 -0.4
v -1 1.2 -0.4
v -1 1.3 -0.4
v -1 1.5 -0.4
v -1 1.6 -0.4
v -1 1.9 -0.4
v -1 2 -0.4
v -1 2.1 -0.4
v -0.9 0.7 -0.4
v -0.9 0.8 -0.4
v -0.9 0.9 -0.4
v -0.9 1.1 -0.4
v -0.9 1.2 -0.4
v -0.9 1.3 -0.4
v -0.9 1.6 -0.4
v -0.9 1.7 -0.4
v -0.9 1.9 -0.4
v -0.8 0.9 -0.4
v -0.8 1.1 -0.4
v -0.8 1.4 -0.4
v -0.8 1.5 -0.4
v -0.8 1.6 -0.4
v -0.8 1.7 -0.4
v -0.8 1.8 -0.4
v -0.8 1.9 -0.4
v -0.7 0.8 -0.4
v -0.7 1 -0.4
v -0.7 1.5 -0.4
v -0.7 1.8 -0.4
v -0.7 1.9 -0.4
v -0.7 2 -0.4
v -0.6 1.3 -0.4
v -0.6 1.4 -0.4
v -0.6 1.5 -0.4
v -0.6 1.8 -0.4
v -0.6 1.9 -0.4
v -0.6 2 -0.4
v -0.5 0 -0.4
v -0.5 0.1 -0.4
v -0.5 1 -0.4
v -0.5 1.1 -0.4
v -0.5 1.2 -0.4
v -0.5 1.3 -0.4
v -0.5 1.7 -0.4
v -0.5 1.8 -0.4
v -0.4 1.6 -0.4
v -0.4 1.7 -0.4
v -0.4 1.8 -0.4
v -0.3 0.1 -0.4
v -0.3 0.2 -0.4
v -0.3 1.4 -0.4
v -0.3 1.6 -0.4
v -0.3 1.7 -0.4
v -0.2 0.1 -0.4
v -0.2 0.2 -0.4
v -0.2 0.8 -0.4
v -0.2 1 -0.4
v -0.2 1.4 -0.4
v -0.2 1.5 -0.4
v -0.1 0.2 -0.4
v -0.1 0.3 -0.4
v -0.1 0.7 -0.4
v -0.1 0.8 -0.4
v -0.1 1 -0.4
v -0.1 1.1 -0.4
v -0.1 1.2 -0.4
v -0.1 1.5 -0.4
v -0.1 1.6 -0.4
v 0 0.3 -0.4
v 0 0.4 -0.4
v 0 0.6 -0.4
v 0 0.7 -0.4
v 0 0.8 -0.4
v 0 1 -0.4
v 0 1.2 -0.4
v 0 1.3 -0.4
v 0.1 0.1 -0.4
v 0.1 0.4 -0.4
v 0.1 0.5 -0.4
v 0.1 0.6 -0.4
v 0.1 0.7 -0.4
v 0.1 1.1 -0.4
v 0.1 1.2 -0.4
v 0.2 0 -0.4
v 0.2 0.1 -0.4
v 0.2 0.5 -0.4
v 0.2 0.7 -0.4
v 0.2 0.8 -0.4
v 0.2 1 -0.4
v 0.2 1.1 -0.4
v 0.2 1.2 -0.4
v 0.2 1.3 -0.4
v 0.2 1.5 -0.4
v 0.2 1.6 -0.4
v 0.3 0.7 -0.4
v 0.3 0.8 -0.4
v 0.3 0.9 -0.4
v 0.3 1 -0.4
v 0.3 1.2 -0.4
v 0.3 1.3 -0.4
v 0.3 1.5 -0.4
v 0.4 0.9 -0.4
v 0.4 1 -0.4
v 0.4 1.1 -0.4
v 0.4 1.2 -0.4
v 0.5 1 -0.4
v 0.5 1.1 -0.4
v -0.5 0 0.3
v 0.2 0 0.3
v -0.5 0 0
v 0.2 0 0
v -0.5 0 -0.1
v 0.2 0 -0.1
v -0.5 0 -0.4
v 0.2 0 -0.4
v 0.1 0.3 0.2
v 0.2 0.3 0.2
v 0.1 0.3 0.1
v 0.2 0.3 0.1
v 0.1 0.3 -0.2
v 0.2 0.3 -0.2
v 0.1 0.3 -0.3
v 0.2 0.3 -0.3
v 0.2 0.4 0.2
v 0.3 0.4 0.2
v 0 0.4 0.1
v 0.1 0.4 0.1
v 0.2 0.4 0.1
v 0.3 0.4 0.1
v 0 0.4 0
v 0.1 0.4 0
v 0 0.4 -0.1
v 0.2 0.4 -0.1
v 0 0.4 -0.2
v 0.1 0.4 -0.2
v 0.2 0.4 -0.2
v 0.3 0.4 -0.2
v 0.2 0.4 -0.3
v 0.3 0.4 -0.3
v 0.1 0.5 0.3
v 0.2 0.5 0.3
v 0.1 0.5 0.2
v 0.2 0.5 0.2
v 0.3 0.5 0.2
v 0.4 0.5 0.2
v 0.1 0.5 0.1
v 0.2 0.5 0.1
v 0.3 0.5 0.1
v 0.4 0.5 0.1
v 0.1 0.5 0
v 0.2 0.5 0
v 0.3 0.5 -0.2
v 0.4 0.5 -0.2
v 0.1 0.5 -0.3
v 0.2 0.5 -0.3
v 0.3 0.5 -0.3
v 0.4 0.5 -0.3
v 0.1 0.5 -0.4
v 0.2 0.5 -0.4
v 0 0.6 -0.3
v 0.1 0.6 -0.3
v 0 0.6 -0.4
v 0.1 0.6 -0.4
v -1.2 0.7 0.3
v -1.1 0.7 0.3
v -0.9 0.7 0.3
v -0.1 0.7 0.3
v 0 0.7 0.3
v 0.1 0.7 0.3
v 0.2 0.7 0.3
v 0.3 0.7 0.3
v -1.2 0.7 0.2
v -1.1 0.7 0.2
v -0.9 0.7 0.2
v 0 0.7 0.2
v 0.1 0.7 0.2
v 0.2 0.7 0.2
v 0.3 0.7 0.2
v 0.2 0.7 0.1
v 0.3 0.7 0.1
v -0.1 0.7 0
v 0 0.7 0
v 0.2 0.7 0
v 0.3 0.7 0
v -0.1 0.7 -0.1
v 0 0.7 -0.1
v 0.2 0.7 -0.1
v 0.3 0.7 -0.1
v 0.2 0.7 -0.2
v 0.3 0.7 -0.2
v -1.2 0.7 -0.3
v -1.1 0.7 -0.3
v -0.9 0.7 -0.3
v 0.2 0.7 -0.3
v 0.3 0.7 -0.3
v -1.2 0.7 -0.4
v -1.1 0.7 -0.4
v -0.9 0.7 -0.4
v -0.1 0.7 -0.4
v 0 0.7 -0.4
v 0.2 0.7 -0.4
v 0.3 0.7 -0.4
v -0.9 0.8 0.3
v -0.7 0.8 0.3
v -0.2 0.8 0.3
v -0.1 0.8 0.3
v -0.9 0.8 0.2
v -0.7 0.8 0.2
v -0.2 0.8 0
v -0.1 0.8 0
v -0.2 0.8 -0.1
v -0.1 0.8 -0.1
v -0.9 0.8 -0.3
v -0.7 0.8 -0.3
v -0.9 0.8 -0.4
v -0.7 0.8 -0.4
v -0.2 0.8 -0.4
v -0.1 0.8 -0.4
v 0.3 0.9 0.3
v 0.4 0.9 0.3
v -0.9 0.9 0.2
v -0.8 0.9 0.2
v -0.7 0.9 0.2
v -0.5 0.9 0.2
v -0.2 0.9 0.2
v 0.5 0.9 0.2
v 0.7 0.9 0.2
v -0.9 0.9 0.1
v -0.8 0.9 0.1
v -0.2 0.9 0
v -0.1 0.9 0
v 0.2 0.9 0
v 0.3 0.9 0
v 0.5 0.9 0
v 0.7 0.9 0
v -0.2 0.9 -0.1
v -0.1 0.9 -0.1
v 0.2 0.9 -0.1
v 0.3 0.9 -0.1
v 0.5 0.9 -0.1
v 0.7 0.9 -0.1
v -0.8 0.9 -0.3
v -0.7 0.9 -0.3
v -0.5 0.9 -0.3
v -0.2 0.9 -0.3
v 0.5 0.9 -0.3
v 0.7 0.9 -0.3
v 0.3 0.9 -0.4
v 0.4 0.9 -0.4
v -0.7 1 0.3
v -0.6 1 0.3
v 0.4 1 0.3
v 0.5 1 0.3
v -0.6 1 0.2
v -0.5 1 0.2
v 0.5 1 0.2
v 0.7 1 0.1
v 0.9 1 0.1
v 0.5 1 0
v 0.6 1 0
v 0.7 1 0
v 0.9 1 0
v 1.2 1 0
v 0.5 1 -0.1
v 0.6 1 -0.1
v 0.7 1 -0.1
v 0.9 1 -0.1
v 1.2 1 -0.1
v -0.9 1 -0.2
v -0.8 1 -0.2
v 0.7 1 -0.2
v 0.9 1 -0.2
v -0.9 1 -0.3
v -0.8 1 -0.3
v -0.5 1 -0.3
v -0.2 1 -0.3
v 0.5 1 -0.3
v -0.7 1 -0.4
v -0.5 1 -0.4
v -0.2 1 -0.4
v 0.4 1 -0.4
v 0.5 1 -0.4
v -1 1.1 0.2
v -0.9 1.1 0.2
v 0.7 1.1 0.2
v 0.9 1.1 0.2
v -0.9 1.1 0.1
v -0.8 1.1 0.1
v 0.7 1.1 0.1
v 0.9 1.1 0.1
v 1.1 1.1 0.1
v 0.9 1.1 0
v 1.1 1.1 0
v 1.2 1.1 0
v 1.4 1.1 0
v 0.9 1.1 -0.1
v 1.1 1.1 -0.1
v 1.2 1.1 -0.1
v 1.4 1.1 -0.1
v -0.9 1.1 -0.2
v -0.8 1.1 -0.2
v 0.7 1.1 -0.2
v 0.9 1.1 -0.2
v 1.1 1.1 -0.2
v 0.7 1.1 -0.3
v 0.9 1.1 -0.3
v -1 1.1 -0.4
v -0.9 1.1 -0.4
v -1.1 1.2 0.3
v -0.9 1.2 0.3
v -1 1.2 0.2
v -0.9 1.2 0.2
v 1.4 1.2 0
v 1.5 1.2 0
v 1.4 1.2 -0.1
v 1.5 1.2 -0.1
v -1.1 1.2 -0.4
v -1 1.2 -0.4
v -0.9 1.3 0.3
v -0.8 1.3 0.3
v -0.6 1.3 0.3
v 0 1.3 0.3
v -0.9 1.3 0.2
v -0.8 1.3 0.2
v -0.6 1.3 0.2
v -0.5 1.3 0.2
v 0 1.3 0.2
v 1.1 1.3 -0.1
v 1.2 1.3 -0.1
v 1.1 1.3 -0.2
v 1.2 1.3 -0.2
v -1.3 1.4 0.3
v -1.1 1.4 0.3
v -0.8 1.4 0.3
v -0.6 1.4 0.3
v -1.4 1.4 0.2
v -1.3 1.4 0.2
v -0.8 1.4 0.2
v -0.6 1.4 0.2
v -1.4 1.4 -0.3
v -1.3 1.4 -0.3
v -1.3 1.4 -0.4
v -1.1 1.4 -0.4
v -1.4 1.6 0.3
v -1 1.6 0.3
v -1.3 1.6 0.1
v -1 1.6 0.1
v -1.5 1.6 0
v -1.4 1.6 0
v -1.5 1.6 -0.1
v -1.4 1.6 -0.1
v -1.3 1.6 -0.2
v -1 1.6 -0.2
v -1.4 1.6 -0.4
v -1 1.6 -0.4
v -1.5 1.7 0.1
v -1.4 1.7 0.1
v -1.5 1.7 0
v -1.4 1.7 0
v -1.5 1.7 -0.1
v -1.4 1.7 -0.1
v -1.5 1.7 -0.2
v -1.4 1.7 -0.2
v -1.1 1.9 0.3
v -1 1.9 0.3
v -1.1 1.9 0.2
v -1 1.9 0.2
v -1.1 1.9 -0.3
v -1 1.9 -0.3
v -1.1 1.9 -0.4
v -1 1.9 -0.4
v -0.5 0.1 0.3
v -0.3 0.1 0.3
v 0.1 0.1 0.3
v 0.2 0.1 0.3
v 0.1 0.1 0.2
v 0.2 0.1 0.2
v 0.1 0.1 0.1
v 0.2 0.1 0.1
v -0.5 0.1 0
v -0.3 0.1 0
v 0.1 0.1 0
v 0.2 0.1 0
v -0.5 0.1 -0.1
v -0.3 0.1 -0.1
v 0.1 0.1 -0.1
v 0.2 0.1 -0.1
v 0.1 0.1 -0.2
v 0.2 0.1 -0.2
v 0.1 0.1 -0.3
v 0.2 0.1 -0.3
v -0.5 0.1 -0.4
v -0.3 0.1 -0.4
v 0.1 0.1 -0.4
v 0.2 0.1 -0.4
v -0.3 0.2 0.3
v -0.2 0.2 0.3
v -0.1 0.2 0.3
v -0.2 0.2 0.2
v -0.1 0.2 0.2
v 0.1 0.2 0.2
v 0.2 0.2 0.2
v -0.2 0.2 0.1
v -0.1 0.2 0.1
v 0.1 0.2 0.1
v 0.2 0.2 0.1
v -0.3 0.2 0
v -0.2 0.2 0
v -0.1 0.2 0
v -0.3 0.2 -0.1
v -0.2 0.2 -0.1
v -0.1 0.2 -0.1
v -0.2 0.2 -0.2
v -0.1 0.2 -0.2
v 0.1 0.2 -0.2
v 0.2 0.2 -0.2
v -0.2 0.2 -0.3
v -0.1 0.2 -0.3
v 0.1 0.2 -0.3
v 0.2 0.2 -0.3
v -0.3 0.2 -0.4
v -0.2 0.2 -0.4
v -0.1 0.2 -0.4
v -0.1 0.3 0.3
v 0 0.3 0.3
v -0.2 0.3 0.2
v -0.1 0.3 0.2
v 0 0.3 0.2
v -0.2 0.3 0.1
v -0.1 0.3 0.1
v 0 0.3 0.1
v 0.1 0.3 0.1
v -0.1 0.3 0
v 0.1 0.3 0
v -0.1 0.3 -0.1
v 0.1 0.3 -0.1
v -0.2 0.3 -0.2
v -0.1 0.3 -0.2
v 0 0.3 -0.2
v 0.1 0.3 -0.2
v -0.2 0.3 -0.3
v -0.1 0.3 -0.3
v 0 0.3 -0.3
v -0.1 0.3 -0.4
v 0 0.3 -0.4
v 0 0.4 0.3
v 0.1 0.4 0.3
v 0 0.4 0.2
v 0.1 0.4 0.2
v 0 0.4 -0.3
v 0.1 0.4 -0.3
v 0 0.4 -0.4
v 0.1 0.4 -0.4
v -0.1 0.5 0.2
v 0 0.5 0.2
v -0.1 0.5 0.1
v 0 0.5 0.1
v -0.1 0.5 -0.2
v 0 0.5 -0.2
v -0.1 0.5 -0.3
v 0 0.5 -0.3
v -1.2 0.8 0.3
v -1.1 0.8 0.3
v -1.2 0.8 0.2
v -1.1 0.8 0.2
v 0.3 0.8 0.2
v 0.4 0.8 0.2
v 0.3 0.8 0.1
v 0.4 0.8 0.1
v 0.3 0.8 -0.2
v 0.4 0.8 -0.2
v -1.2 0.8 -0.3
v -1.1 0.8 -0.3
v 0.3 0.8 -0.3
v 0.4 0.8 -0.3
v -1.2 0.8 -0.4
v -1.1 0.8 -0.4
v -1.1 0.9 0.3
v -0.9 0.9 0.3
v -1.1 0.9 0.2
v -0.9 0.9 0.2
v -1.1 0.9 -0.3
v -0.9 0.9 -0.3
v -1.1 0.9 -0.4
v -0.9 0.9 -0.4
v -0.2 1.1 0.3
v -0.1 1.1 0.3
v 0.4 1.1 0.3
v 0.5 1.1 0.3
v -0.2 1.1 0.2
v -0.1 1.1 0.2
v 0.4 1.1 0.2
v 0.5 1.1 0.2
v 0.4 1.1 -0.3
v 0.5 1.1 -0.3
v 0.4 1.1 -0.4
v 0.5 1.1 -0.4
v -0.9 1.2 0.3
v -0.8 1.2 0.3
v -0.1 1.2 0.3
v 0 1.2 0.3
v 0.3 1.2 0.3
v 0.4 1.2 0.3
v -0.9 1.2 0.2
v -0.8 1.2 0.2
v -0.1 1.2 0.2
v 0 1.2 0.2
v 0.3 1.2 0.2
v 0.4 1.2 0.2
v 0.3 1.2 -0.3
v 0.4 1.2 -0.3
v 0.3 1.2 -0.4
v 0.4 1.2 -0.4
v -0.8 1.3 0.3
v -0.6 1.3 0.3
v -0.8 1.3 0.2
v -0.6 1.3 0.2
v 0.3 1.3 0.2
v 0.8 1.3 0.2
v 0.9 1.3 0.2
v 0.3 1.3 0.1
v 0.8 1.3 0.1
v 0.9 1.3 0.1
v 0.3 1.3 -0.2
v 0.8 1.3 -0.2
v 0.3 1.3 -0.3
v 0.8 1.3 -0.3
v -0.3 1.4 0.3
v -0.2 1.4 0.3
v -0.3 1.4 0.2
v -0.2 1.4 0.2
v 1 1.4 0.1
v 1.1 1.4 0.1
v 1 1.4 0
v 1.1 1.4 0
v 1.2 1.4 0
v 1.5 1.4 0
v 1 1.4 -0.1
v 1.2 1.4 -0.1
v 1.5 1.4 -0.1
v 1 1.4 -0.2
v 1.2 1.4 -0.2
v -0.3 1.4 -0.3
v -0.2 1.4 -0.3
v -0.3 1.4 -0.4
v -0.2 1.4 -0.4
v -1.3 1.5 0.3
v -1 1.5 0.3
v -0.2 1.5 0.3
v -0.1 1.5 0.3
v 0.2 1.5 0.3
v 0.3 1.5 0.3
v -1.4 1.5 0.2
v -1.3 1.5 0.2
v -0.2 1.5 0.2
v -0.1 1.5 0.2
v 0.2 1.5 0.2
v 0.3 1.5 0.2
v -1.3 1.5 0.1
v -1 1.5 0.1
v 0.9 1.5 0.1
v 1 1.5 0.1
v 0.9 1.5 0
v 1 1.5 0
v 1.2 1.5 0
v 0.9 1.5 -0.1
v 1 1.5 -0.1
v 1.2 1.5 -0.1
v -1.3 1.5 -0.2
v -1 1.5 -0.2
v 0.8 1.5 -0.2
v 0.9 1.5 -0.2
v 1 1.5 -0.2
v -1.4 1.5 -0.3
v -1.3 1.5 -0.3
v -0.2 1.5 -0.3
v -0.1 1.5 -0.3
v 0.2 1.5 -0.3
v 0.3 1.5 -0.3
v 0.8 1.5 -0.3
v 0.9 1.5 -0.3
v -1.3 1.5 -0.4
v -1 1.5 -0.4
v -0.2 1.5 -0.4
v -0.1 1.5 -0.4
v 0.2 1.5 -0.4
v 0.3 1.5 -0.4
v -0.1 1.6 0.3
v 0.2 1.6 0.3
v -0.1 1.6 0.2
v 0.2 1.6 0.2
v 0.3 1.6 0.1
v 0.7 1.6 0.1
v 0.9 1.6 0.1
v 0.3 1.6 0
v 0.6 1.6 0
v 0.7 1.6 0
v 0.9 1.6 0
v 1 1.6 0
v 0.3 1.6 -0.1
v 0.6 1.6 -0.1
v 0.7 1.6 -0.1
v 0.9 1.6 -0.1
v 1 1.6 -0.1
v 0.3 1.6 -0.2
v 0.7 1.6 -0.2
v 0.9 1.6 -0.2
v -0.1 1.6 -0.3
v 0.2 1.6 -0.3
v -0.1 1.6 -0.4
v 0.2 1.6 -0.4
v -1.1 1.7 0.3
v -0.9 1.7 0.3
v -0.4 1.7 0.3
v -0.3 1.7 0.3
v -1.1 1.7 0.2
v -0.9 1.7 0.2
v -0.5 1.7 0.2
v -0.4 1.7 0.2
v -0.3 1.7 0.2
v 0.3 1.7 0.2
v -0.3 1.7 0.1
v 0.3 1.7 0.1
v 0.3 1.7 0
v 0.6 1.7 0
v 0.7 1.7 0
v 0.3 1.7 -0.1
v 0.6 1.7 -0.1
v 0.7 1.7 -0.1
v -0.3 1.7 -0.2
v 0.3 1.7 -0.2
v -1.1 1.7 -0.3
v -0.9 1.7 -0.3
v -0.5 1.7 -0.3
v -0.4 1.7 -0.3
v -0.3 1.7 -0.3
v 0.3 1.7 -0.3
v -1.1 1.7 -0.4
v -0.9 1.7 -0.4
v -0.4 1.7 -0.4
v -0.3 1.7 -0.4
v -1.4 1.8 0.3
v -1.3 1.8 0.3
v -0.8 1.8 0.3
v -0.7 1.8 0.3
v -0.6 1.8 0.3
v -0.5 1.8 0.3
v -0.4 1.8 0.3
v -0.7 1.8 0.2
v -0.6 1.8 0.2
v -0.5 1.8 0.2
v -0.4 1.8 0.2
v -1.5 1.8 0.1
v -1.4 1.8 0.1
v -1.3 1.8 0.1
v -0.8 1.8 0.1
v -0.7 1.8 0.1
v -0.6 1.8 0.1
v -0.5 1.8 0.1
v -0.3 1.8 0.1
v 0.3 1.8 0.1
v -1.5 1.8 -0.2
v -1.4 1.8 -0.2
v -1.3 1.8 -0.2
v -0.8 1.8 -0.2
v -0.7 1.8 -0.2
v -0.6 1.8 -0.2
v -0.5 1.8 -0.2
v -0.3 1.8 -0.2
v 0.3 1.8 -0.2
v -0.8 1.8 -0.3
v -0.7 1.8 -0.3
v -0.6 1.8 -0.3
v -0.5 1.8 -0.3
v -0.4 1.8 -0.3
v -1.4 1.8 -0.4
v -1.3 1.8 -0.4
v -0.6 1.8 -0.4
v -0.5 1.8 -0.4
v -0.4 1.8 -0.4
v -1.3 1.9 0.3
v -1.1 1.9 0.3
v -0.9 1.9 0.3
v -0.8 1.9 0.3
v -1.3 1.9 0.2
v -1.1 1.9 0.2
v -0.9 1.9 0.2
v -1.4 1.9 0.1
v -1.3 1.9 0.1
v -0.9 1.9 0.1
v -0.8 1.9 0.1
v -0.7 1.9 0.1
v -0.6 1.9 0.1
v -0.5 1.9 0.1
v -1.4 1.9 -0.2
v -1.3 1.9 -0.2
v -0.9 1.9 -0.2
v -0.8 1.9 -0.2
v -0.7 1.9 -0.2
v -0.6 1.9 -0.2
v -0.5 1.9 -0.2
v -1.3 1.9 -0.3
v -1.2 1.9 -0.3
v -0.9 1.9 -0.3
v -0.8 1.9 -0.3
v -0.7 1.9 -0.3
v -1.3 1.9 -0.4
v -1.2 1.9 -0.4
v -0.9 1.9 -0.4
v -0.8 1.9 -0.4
v -0.7 1.9 -0.4
v -0.7 2 0.3
v -0.6 2 0.3
v -1.3 2 0.2
v -1.1 2 0.2
v -1 2 0.2
v -0.9 2 0.2
v -0.7 2 0.2
v -0.6 2 0.2
v -0.9 2 0.1
v -0.8 2 0.1
v -0.9 2 -0.2
v -0.8 2 -0.2
v -1.3 2 -0.3
v -1.2 2 -0.3
v -1.1 2 -0.3
v -1 2 -0.3
v -0.9 2 -0.3
v -0.7 2 -0.3
v -0.6 2 -0.3
v -1.2 2 -0.4
v -1.1 2 -0.4
v -0.7 2 -0.4
v -0.6 2 -0.4
v -1.1 2.1 0.3
v -1 2.1 0.3
v -1.1 2.1 0.2
v -1 2.1 0.2
v -1.1 2.1 -0.3
v -1 2.1 -0.3
v -1.1 2.1 -0.4
v -1 2.1 -0.4

# faces
f 4/3/1 2/3/1 1/3/1
f 5/3/1 2/3/1 4/3/1
f 7/3/1 4/3/1 3/3/1
f 7/3/1 6/3/1 5/3/1
f 7/3/1 5/3/1 4/3/1
f 8/3/1 6/3/1 7/3/1
f 11/5/1 10/5/1 9/5/1
f 12/5/1 10/5/1 11/5/1
f 17/5/1 14/5/1 13/5/1
f 18/5/1 14/5/1 17/5/1
f 19/5/1 16/5/1 15/5/1
f 20/5/1 16/5/1 19/5/1
f 21/5/1 17/5/1 13/5/1
f 22/5/1 17/5/1 21/5/1
f 23/5/1 16/5/1 20/5/1
f 24/5/1 16/5/1 23/5/1
f 25/3/1 23/3/1 22/3/1
f 26/3/1 23/3/1 25/3/1
f 31/5/1 28/5/1 27/5/1
f 32/5/1 28/5/1 31/5/1
f 35/5/1 30/5/1 29/5/1
f 36/5/1 30/5/1 35/5/1
f 37/10/1 34/10/1 33/10/1
f 38/10/1 34/10/1 37/10/1
f 43/5/1 40/5/1 39/5/1
f 44/5/1 40/5/1 43/5/1
f 45/5/1 40/5/1 44/5/1
f 46/5/1 42/5/1 41/5/1
f 47/5/1 42/5/1 46/5/1
f 48/5/1 42/5/1 47/5/1
f 49/3/1 45/3/1 44/3/1
f 49/3/1 47/3/1 46/3/1
f 49/3/1 46/3/1 45/3/1
f 50/3/1 47/3/1 49/3/1
f 55/9/1 52/9/1 51/9/1
f 56/9/1 52/9/1 55/9/1
f 57/9/1 54/9/1 53/9/1
f 58/9/1 54/9/1 57/9/1
f 61/3/1 60/3/1 59/3/1
f 62/3/1 60/3/1 61/3/1
f 67/9/1 64/9/1 63/9/1
f 68/9/1 64/9/1 67/9/1
f 69/9/1 66/9/1 65/9/1
f 70/9/1 66/9/1 69/9/1
f 73/9/1 72/9/1 71/9/1
f 74/9/1 72/9/1 73/9/1
f 75/5/1 74/5/1 73/5/1
f 76/5/1 74/5/1 75/5/1
f 79/5/1 78/5/1 77/5/1
f 80/5/1 78/5/1 79/5/1
f 83/2/1 80/2/1 79/2/1
f 84/2/1 80/2/1 83/2/1
f 85/2/1 82/2/1 81/2/1
f 86/2/1 82/2/1 85/2/1
f 89/9/1 88/9/1 87/9/1
f 90/9/1 88/9/1 89/9/1
f 95/5/1 92/5/1 91/5/1
f 96/5/1 92/5/1 95/5/1
f 97/5/1 94/5/1 93/5/1
f 98/5/1 94/5/1 97/5/1
f 105/9/1 103/9/1 102/9/1
f 106/9/1 100/9/1 99/9/1
f 106/9/1 101/9/1 100/9/1
f 107/9/1 101/9/1 106/9/1
f 108/9/1 105/9/1 104/9/1
f 109/9/1 103/9/1 105/9/1
f 109/9/1 105/9/1 108/9/1
f 110/9/1 106/9/1 99/9/1
f 111/9/1 106/9/1 110/9/1
f 116/5/1 113/5/1 112/5/1
f 117/5/1 113/5/1 116/5/1
f 118/5/1 115/5/1 114/5/1
f 119/5/1 115/5/1 118/5/1
f 122/8/1 121/8/1 120/8/1
f 123/8/1 121/8/1 122/8/1
f 124/8/1 122/8/1 120/8/1
f 125/8/1 122/8/1 124/8/1
f 128/10/1 127/10/1 126/10/1
f 129/10/1 127/10/1 128/10/1
f 132/5/1 131/5/1 130/5/1
f 133/5/1 131/5/1 132/5/1
f 136/2/1 133/2/1 132/2/1
f 137/2/1 133/2/1 136/2/1
f 138/2/1 135/2/1 134/2/1
f 139/2/1 135/2/1 138/2/1
f 142/6/1 141/6/1 140/6/1
f 143/6/1 141/6/1 142/6/1
f 148/8/1 145/8/1 144/8/1
f 149/8/1 145/8/1 148/8/1
f 150/8/1 147/8/1 146/8/1
f 151/8/1 147/8/1 150/8/1
f 154/8/1 153/8/1 152/8/1
f 155/8/1 153/8/1 154/8/1
f 160/9/1 157/9/1 156/9/1
f 161/9/1 157/9/1 160/9/1
f 162/9/1 159/9/1 158/9/1
f 163/9/1 159/9/1 162/9/1
f 166/4/1 165/4/1 164/4/1
f 167/4/1 165/4/1 166/4/1
f 172/9/1 169/9/1 168/9/1
f 173/9/1 169/9/1 172/9/1
f 174/9/1 171/9/1 170/9/1
f 175/9/1 171/9/1 174/9/1
f 180/9/1 177/9/1 176/9/1
f 181/9/1 177/9/1 180/9/1
f 182/9/1 179/9/1 178/9/1
f 183/9/1 179/9/1 182/9/1
f 184/9/1 180/9/1 176/9/1
f 185/9/1 179/9/1 183/9/1
f 186/9/1 179/9/1 185/9/1
f 187/9/1 184/9/1 176/9/1
f 188/9/1 184/9/1 187/9/1
f 193/6/1 190/6/1 189/6/1
f 194/6/1 190/6/1 193/6/1
f 195/6/1 192/6/1 191/6/1
f 196/6/1 192/6/1 195/6/1
f 205/7/1 198/7/1 197/7/1
f 206/7/1 198/7/1 205/7/1
f 207/7/1 200/7/1 199/7/1
f 208/7/1 200/7/1 207/7/1
f 209/7/1 202/7/1 201/7/1
f 210/7/1 202/7/1 209/7/1
f 211/7/1 204/7/1 203/7/1
f 212/7/1 204/7/1 211/7/1
f 213/9/1 207/9/1 206/9/1
f 214/9/1 207/9/1 213/9/1
f 215/9/1 211/9/1 210/9/1
f 216/9/1 211/9/1 215/9/1
f 221/9/1 218/9/1 217/9/1
f 222/9/1 218/9/1 221/9/1
f 223/9/1 220/9/1 219/9/1
f 224/9/1 220/9/1 223/9/1
f 227/9/1 226/9/1 225/9/1
f 228/9/1 226/9/1 227/9/1
f 233/6/1 230/6/1 229/6/1
f 234/6/1 230/6/1 233/6/1
f 235/6/1 232/6/1 231/6/1
f 236/6/1 232/6/1 235/6/1
f 241/7/1 238/7/1 237/7/1
f 242/7/1 238/7/1 241/7/1
f 247/7/1 240/7/1 239/7/1
f 248/7/1 240/7/1 247/7/1
f 250/7/1 244/7/1 243/7/1
f 251/7/1 244/7/1 250/7/1
f 252/7/1 246/7/1 245/7/1
f 253/7/1 246/7/1 252/7/1
f 255/9/1 253/9/1 252/9/1
f 255/9/1 254/9/1 253/9/1
f 257/9/1 251/9/1 250/9/1
f 257/9/1 250/9/1 249/9/1
f 258/9/1 251/9/1 257/9/1
f 259/9/1 256/9/1 255/9/1
f 259/9/1 255/9/1 252/9/1
f 260/9/1 256/9/1 259/9/1
f 263/6/1 262/6/1 261/6/1
f 264/6/1 262/6/1 263/6/1
f 269/7/1 268/7/1 267/7/1
f 270/7/1 268/7/1 269/7/1
f 271/7/1 266/7/1 265/7/1
f 272/7/1 266/7/1 271/7/1
f 277/8/1 274/8/1 273/8/1
f 278/8/1 274/8/1 277/8/1
f 279/8/1 276/8/1 275/8/1
f 280/8/1 276/8/1 279/8/1
f 283/6/1 282/6/1 281/6/1
f 284/6/1 282/6/1 283/6/1
f 285/5/2 286/5/2 289/5/2
f 287/5/2 288/5/2 290/5/2
f 285/5/2 289/5/2 291/5/2
f 291/5/2 289/5/2 292/5/2
f 290/5/2 288/5/2 293/5/2
f 293/5/2 288/5/2 294/5/2
f 295/5/2 296/5/2 299/5/2
f 299/5/2 296/5/2 300/5/2
f 297/5/2 298/5/2 301/5/2
f 301/5/2 298/5/2 302/5/2
f 299/2/2 300/2/2 303/2/2
f 303/2/2 300/2/2 304/2/2
f 301/2/2 302/2/2 305/2/2
f 305/2/2 302/2/2 306/2/2
f 307/8/2 308/8/2 311/8/2
f 311/8/2 308/8/2 312/8/2
f 309/8/2 310/8/2 313/8/2
f 313/8/2 310/8/2 314/8/2
f 315/9/2 316/9/2 317/9/2
f 317/9/2 316/9/2 318/9/2
f 319/5/2 320/5/2 323/5/2
f 323/5/2 320/5/2 324/5/2
f 321/5/2 322/5/2 325/5/2
f 325/5/2 322/5/2 326/5/2
f 327/10/2 328/10/2 329/10/2
f 329/10/2 328/10/2 330/10/2
f 331/5/2 332/5/2 335/5/2
f 335/5/2 332/5/2 336/5/2
f 333/5/2 334/5/2 337/5/2
f 337/5/2 334/5/2 338/5/2
f 336/3/2 337/3/2 339/3/2
f 339/3/2 337/3/2 340/3/2
f 341/8/2 342/8/2 345/8/2
f 343/8/2 344/8/2 346/8/2
f 341/8/2 345/8/2 347/8/2
f 345/8/2 346/8/2 347/8/2
f 346/8/2 344/8/2 348/8/2
f 347/8/2 346/8/2 348/8/2
f 349/8/2 350/8/2 351/8/2
f 351/8/2 350/8/2 352/8/2
f 351/9/2 352/9/2 353/9/2
f 353/9/2 352/9/2 354/9/2
f 353/10/2 354/10/2 355/10/2
f 355/10/2 354/10/2 356/10/2
f 357/5/2 358/5/2 361/5/2
f 361/5/2 358/5/2 362/5/2
f 359/5/2 360/5/2 363/5/2
f 363/5/2 360/5/2 364/5/2
f 361/2/2 362/2/2 365/2/2
f 365/2/2 362/2/2 366/2/2
f 363/2/2 364/2/2 367/2/2
f 367/2/2 364/2/2 368/2/2
f 369/6/2 370/6/2 371/6/2
f 371/6/2 370/6/2 372/6/2
f 372/6/2 370/6/2 373/6/2
f 373/6/2 370/6/2 374/6/2
f 372/4/2 373/4/2 375/4/2
f 375/4/2 373/4/2 376/4/2
f 377/2/2 378/2/2 381/2/2
f 381/2/2 378/2/2 382/2/2
f 379/2/2 380/2/2 383/2/2
f 383/2/2 380/2/2 384/2/2
f 385/6/2 386/6/2 389/6/2
f 389/6/2 386/6/2 390/6/2
f 387/6/2 388/6/2 391/6/2
f 391/6/2 388/6/2 392/6/2
f 389/4/2 390/4/2 393/4/2
f 393/4/2 390/4/2 394/4/2
f 391/4/2 392/4/2 395/4/2
f 395/4/2 392/4/2 396/4/2
f 397/7/2 398/7/2 405/7/2
f 399/7/2 400/7/2 406/7/2
f 401/7/2 402/7/2 407/7/2
f 403/7/2 404/7/2 408/7/2
f 397/7/2 405/7/2 409/7/2
f 405/7/2 406/7/2 409/7/2
f 406/7/2 400/7/2 410/7/2
f 409/7/2 406/7/2 410/7/2
f 410/7/2 400/7/2 411/7/2
f 401/7/2 407/7/2 412/7/2
f 407/7/2 408/7/2 412/7/2
f 412/7/2 408/7/2 413/7/2
f 408/7/2 404/7/2 414/7/2
f 413/7/2 408/7/2 414/7/2
f 397/7/2 409/7/2 415/7/2
f 415/7/2 409/7/2 416/7/2
f 414/7/2 404/7/2 419/7/2
f 419/7/2 404/7/2 420/7/2
f 417/7/2 418/7/2 421/7/2
f 421/7/2 418/7/2 422/7/2
f 423/8/2 424/8/2 427/8/2
f 427/8/2 424/8/2 428/8/2
f 428/8/2 424/8/2 429/8/2
f 429/8/2 424/8/2 430/8/2
f 425/8/2 426/8/2 431/8/2
f 431/8/2 426/8/2 432/8/2
f 432/8/2 426/8/2 433/8/2
f 433/8/2 426/8/2 434/8/2
f 428/8/2 429/8/2 435/8/2
f 435/8/2 429/8/2 436/8/2
f 432/8/2 433/8/2 437/8/2
f 437/8/2 433/8/2 438/8/2
f 439/8/2 440/8/2 443/8/2
f 443/8/2 440/8/2 444/8/2
f 441/8/2 442/8/2 446/8/2
f 446/8/2 442/8/2 447/8/2
f 445/7/2 446/7/2 452/7/2
f 448/7/2 449/7/2 455/7/2
f 455/7/2 449/7/2 456/7/2
f 450/7/2 451/7/2 457/7/2
f 457/7/2 451/7/2 458/7/2
f 445/7/2 452/7/2 459/7/2
f 459/7/2 452/7/2 460/7/2
f 453/7/2 454/7/2 461/7/2
f 461/7/2 454/7/2 462/7/2
f 463/6/2 464/6/2 467/6/2
f 467/6/2 464/6/2 468/6/2
f 465/6/2 466/6/2 469/6/2
f 469/6/2 466/6/2 470/6/2
f 471/8/2 472/8/2 475/8/2
f 475/8/2 472/8/2 476/8/2
f 473/8/2 474/8/2 477/8/2
f 477/8/2 474/8/2 478/8/2
f 479/6/2 480/6/2 487/6/2
f 487/6/2 480/6/2 488/6/2
f 481/6/2 482/6/2 489/6/2
f 489/6/2 482/6/2 490/6/2
f 483/6/2 484/6/2 491/6/2
f 491/6/2 484/6/2 492/6/2
f 485/6/2 486/6/2 493/6/2
f 493/6/2 486/6/2 494/6/2
f 489/8/2 490/8/2 495/8/2
f 487/8/2 488/8/2 495/8/2
f 488/8/2 489/8/2 495/8/2
f 495/8/2 490/8/2 496/8/2
f 491/8/2 492/8/2 497/8/2
f 493/8/2 494/8/2 497/8/2
f 492/8/2 493/8/2 497/8/2
f 497/8/2 494/8/2 498/8/2
f 499/8/2 500/8/2 503/8/2
f 503/8/2 500/8/2 504/8/2
f 501/8/2 502/8/2 507/8/2
f 507/8/2 502/8/2 508/8/2
f 504/6/2 505/6/2 509/6/2
f 503/6/2 504/6/2 509/6/2
f 509/6/2 505/6/2 510/6/2
f 507/6/2 508/6/2 511/6/2
f 506/6/2 507/6/2 511/6/2
f 511/6/2 508/6/2 512/6/2
f 510/6/2 505/6/2 513/6/2
f 506/6/2 511/6/2 516/6/2
f 513/6/2 514/6/2 517/6/2
f 510/6/2 513/6/2 517/6/2
f 517/6/2 514/6/2 518/6/2
f 518/6/2 514/6/2 519/6/2
f 515/6/2 516/6/2 520/6/2
f 516/6/2 511/6/2 521/6/2
f 520/6/2 516/6/2 521/6/2
f 521/6/2 511/6/2 522/6/2
f 518/4/2 519/4/2 523/4/2
f 519/4/2 520/4/2 523/4/2
f 520/4/2 521/4/2 523/4/2
f 523/4/2 521/4/2 524/4/2
f 525/8/2 526/8/2 529/8/2
f 529/8/2 526/8/2 530/8/2
f 527/8/2 528/8/2 531/8/2
f 531/8/2 528/8/2 532/8/2
f 533/8/2 534/8/2 535/8/2
f 535/8/2 534/8/2 536/8/2
f 537/8/2 538/8/2 541/8/2
f 541/8/2 538/8/2 542/8/2
f 539/8/2 540/8/2 543/8/2
f 543/8/2 540/8/2 544/8/2
f 545/8/2 546/8/2 549/8/2
f 549/8/2 546/8/2 550/8/2
f 547/8/2 548/8/2 551/8/2
f 551/8/2 548/8/2 552/8/2
f 553/8/2 554/8/2 557/8/2
f 557/8/2 554/8/2 558/8/2
f 555/8/2 556/8/2 559/8/2
f 559/8/2 556/8/2 560/8/2
f 553/8/2 557/8/2 561/8/2
f 561/8/2 557/8/2 562/8/2
f 560/8/2 556/8/2 563/8/2
f 563/8/2 556/8/2 564/8/2
f 565/8/2 566/8/2 567/8/2
f 567/8/2 566/8/2 568/8/2
f 569/8/2 570/8/2 574/8/2
f 574/8/2 570/8/2 575/8/2
f 571/8/2 572/8/2 576/8/2
f 576/8/2 572/8/2 577/8/2
f 573/7/2 574/7/2 579/7/2
f 579/7/2 574/7/2 580/7/2
f 577/7/2 578/7/2 581/7/2
f 581/7/2 578/7/2 582/7/2
f 579/6/2 580/6/2 583/6/2
f 583/6/2 580/6/2 584/6/2
f 581/6/2 582/6/2 588/6/2
f 588/6/2 582/6/2 589/6/2
f 585/8/2 586/8/2 590/8/2
f 590/8/2 586/8/2 591/8/2
f 587/8/2 588/8/2 592/8/2
f 592/8/2 588/8/2 593/8/2
f 594/6/2 595/6/2 598/6/2
f 598/6/2 595/6/2 599/6/2
f 596/6/2 597/6/2 600/6/2
f 600/6/2 597/6/2 601/6/2
f 599/8/2 600/8/2 602/8/2
f 602/8/2 600/8/2 603/8/2
f 604/7/2 605/7/2 608/7/2
f 608/7/2 605/7/2 609/7/2
f 606/7/2 607/7/2 610/7/2
f 610/7/2 607/7/2 611/7/2
f 608/6/2 609/6/2 612/6/2
f 610/6/2 611/6/2 613/6/2
f 613/6/2 611/6/2 614/6/2
f 608/6/2 612/6/2 615/6/2
f 615/6/2 612/6/2 616/6/2
f 617/8/2 618/8/2 619/8/2
f 619/8/2 618/8/2 620/8/2
f 621/6/2 622/6/2 624/6/2
f 624/6/2 622/6/2 625/6/2
f 623/8/2 624/8/2 626/8/2
f 626/8/2 624/8/2 627/8/2
f 628/8/2 629/8/2 630/8/2
f 630/8/2 629/8/2 631/8/2
f 632/8/2 633/8/2 634/8/2
f 634/8/2 633/8/2 635/8/2
f 640/5/3 637/5/3 636/5/3
f 644/9/3 643/9/3 642/9/3
f 645/9/3 643/9/3 644/9/3
f 649/5/3 639/5/3 638/5/3
f 650/5/3 640/5/3 636/5/3
f 650/5/3 641/5/3 640/5/3
f 651/5/3 641/5/3 650/5/3
f 654/9/3 648/9/3 647/9/3
f 654/5/3 649/5/3 648/5/3
f 655/5/3 639/5/3 649/5/3
f 655/5/3 649/5/3 654/5/3
f 656/5/3 650/5/3 636/5/3
f 657/5/3 652/5/3 651/5/3
f 658/2/3 653/2/3 652/2/3
f 658/5/3 652/5/3 657/5/3
f 659/2/3 653/2/3 658/2/3
f 660/8/3 645/8/3 644/8/3
f 661/9/3 646/9/3 645/9/3
f 661/8/3 645/8/3 660/8/3
f 662/9/3 646/9/3 661/9/3
f 663/9/3 654/9/3 647/9/3
f 664/10/3 655/10/3 654/10/3
f 664/9/3 654/9/3 663/9/3
f 665/5/3 656/5/3 655/5/3
f 665/5/3 650/5/3 656/5/3
f 666/5/3 650/5/3 665/5/3
f 668/8/3 662/8/3 661/8/3
f 668/9/3 663/9/3 662/9/3
f 669/9/3 663/9/3 668/9/3
f 670/9/3 663/9/3 669/9/3
f 671/10/3 655/10/3 664/10/3
f 672/10/3 655/10/3 671/10/3
f 673/5/3 665/5/3 655/5/3
f 673/10/3 655/10/3 672/10/3
f 674/3/3 666/3/3 665/3/3
f 674/5/3 665/5/3 673/5/3
f 675/5/3 667/5/3 666/5/3
f 675/3/3 666/3/3 674/3/3
f 676/5/3 667/5/3 675/5/3
f 677/5/3 667/5/3 676/5/3
f 678/8/3 668/8/3 661/8/3
f 678/8/3 669/8/3 668/8/3
f 679/8/3 669/8/3 678/8/3
f 680/5/3 674/5/3 673/5/3
f 680/5/3 673/5/3 672/5/3
f 680/5/3 676/5/3 675/5/3
f 680/5/3 675/5/3 674/5/3
f 681/5/3 676/5/3 680/5/3
f 684/8/3 669/8/3 679/8/3
f 685/9/3 670/9/3 669/9/3
f 685/8/3 669/8/3 684/8/3
f 686/10/3 671/10/3 670/10/3
f 686/9/3 670/9/3 685/9/3
f 687/10/3 671/10/3 686/10/3
f 688/5/3 680/5/3 672/5/3
f 689/6/3 681/6/3 680/6/3
f 689/5/3 680/5/3 688/5/3
f 690/5/3 682/5/3 681/5/3
f 690/6/3 681/6/3 689/6/3
f 691/2/3 683/2/3 682/2/3
f 691/5/3 682/5/3 690/5/3
f 692/2/3 683/2/3 691/2/3
f 695/6/3 690/6/3 689/6/3
f 695/6/3 688/6/3 687/6/3
f 695/6/3 689/6/3 688/6/3
f 696/6/3 690/6/3 695/6/3
f 697/6/3 695/6/3 687/6/3
f 698/2/3 696/2/3 695/2/3
f 698/6/3 695/6/3 697/6/3
f 699/2/3 696/2/3 698/2/3
f 700/8/3 694/8/3 693/8/3
f 702/6/3 697/6/3 687/6/3
f 703/4/3 698/4/3 697/4/3
f 703/6/3 697/6/3 702/6/3
f 704/4/3 698/4/3 703/4/3
f 705/9/3 701/9/3 700/9/3
f 705/8/3 700/8/3 693/8/3
f 706/9/3 701/9/3 705/9/3
f 709/6/3 702/6/3 687/6/3
f 711/7/3 706/7/3 705/7/3
f 714/9/3 708/9/3 707/9/3
f 715/9/3 708/9/3 714/9/3
f 716/9/3 708/9/3 715/9/3
f 718/6/3 710/6/3 709/6/3
f 720/7/3 712/7/3 711/7/3
f 722/9/3 714/9/3 713/9/3
f 723/7/3 715/7/3 714/7/3
f 723/9/3 714/9/3 722/9/3
f 724/9/3 717/9/3 716/9/3
f 724/7/3 715/7/3 723/7/3
f 724/9/3 716/9/3 715/9/3
f 725/9/3 717/9/3 724/9/3
f 726/6/3 719/6/3 718/6/3
f 726/6/3 709/6/3 687/6/3
f 726/6/3 718/6/3 709/6/3
f 727/8/3 705/8/3 693/8/3
f 727/7/3 711/7/3 705/7/3
f 727/7/3 721/7/3 720/7/3
f 727/7/3 720/7/3 711/7/3
f 728/7/3 721/7/3 727/7/3
f 730/7/3 725/7/3 724/7/3
f 730/7/3 723/7/3 722/7/3
f 730/7/3 724/7/3 723/7/3
f 731/7/3 725/7/3 730/7/3
f 732/6/3 726/6/3 725/6/3
f 732/7/3 725/7/3 731/7/3
f 733/8/3 727/8/3 693/8/3
f 734/8/3 727/8/3 733/8/3
f 735/7/3 731/7/3 730/7/3
f 735/7/3 730/7/3 729/7/3
f 736/7/3 731/7/3 735/7/3
f 737/7/3 731/7/3 736/7/3
f 738/7/3 731/7/3 737/7/3
f 739/6/3 732/6/3 731/6/3
f 739/7/3 731/7/3 738/7/3
f 740/6/3 726/6/3 732/6/3
f 740/6/3 732/6/3 739/6/3
f 741/6/3 719/6/3 726/6/3
f 741/6/3 726/6/3 740/6/3
f 742/6/3 719/6/3 741/6/3
f 743/6/3 719/6/3 742/6/3
f 744/6/3 737/6/3 736/6/3
f 745/8/3 738/8/3 737/8/3
f 745/6/3 737/6/3 744/6/3
f 746/8/3 738/8/3 745/8/3
f 747/6/3 739/6/3 738/6/3
f 747/8/3 738/8/3 746/8/3
f 747/6/3 740/6/3 739/6/3
f 748/8/3 741/8/3 740/8/3
f 748/6/3 740/6/3 747/6/3
f 749/6/3 742/6/3 741/6/3
f 749/8/3 741/8/3 748/8/3
f 750/6/3 742/6/3 749/6/3
f 751/8/3 747/8/3 746/8/3
f 751/8/3 748/8/3 747/8/3
f 752/8/3 748/8/3 751/8/3
f 753/8/3 748/8/3 752/8/3
f 754/8/3 748/8/3 753/8/3
f 755/8/3 753/8/3 752/8/3
f 756/8/3 753/8/3 755/8/3
f 759/5/3 758/5/3 757/5/3
f 760/5/3 758/5/3 759/5/3
f 765/3/3 762/3/3 761/3/3
f 766/3/3 762/3/3 765/3/3
f 769/11/3 764/11/3 763/11/3
f 769/1/3 765/1/3 764/1/3
f 770/1/3 765/1/3 769/1/3
f 772/9/3 768/9/3 767/9/3
f 773/9/3 768/9/3 772/9/3
f 775/11/3 769/11/3 763/11/3
f 775/11/3 770/11/3 769/11/3
f 776/5/3 771/5/3 770/5/3
f 776/11/3 770/11/3 775/11/3
f 777/5/3 771/5/3 776/5/3
f 778/10/3 774/10/3 773/10/3
f 779/10/3 774/10/3 778/10/3
f 784/10/3 780/10/3 779/10/3
f 785/10/3 780/10/3 784/10/3
f 787/8/3 782/8/3 781/8/3
f 788/9/3 783/9/3 782/9/3
f 788/8/3 782/8/3 787/8/3
f 789/10/3 784/10/3 783/10/3
f 789/9/3 783/9/3 788/9/3
f 790/10/3 784/10/3 789/10/3
f 796/8/3 787/8/3 786/8/3
f 797/9/3 788/9/3 787/9/3
f 797/8/3 787/8/3 796/8/3
f 798/7/3 790/7/3 789/7/3
f 798/9/3 788/9/3 797/9/3
f 798/7/3 789/7/3 788/7/3
f 799/6/3 793/6/3 792/6/3
f 799/6/3 792/6/3 791/6/3
f 800/6/3 793/6/3 799/6/3
f 801/9/3 795/9/3 794/9/3
f 802/9/3 795/9/3 801/9/3
f 804/7/3 790/7/3 798/7/3
f 805/7/3 790/7/3 804/7/3
f 806/6/3 793/6/3 800/6/3
f 807/6/3 793/6/3 806/6/3
f 808/9/3 803/9/3 802/9/3
f 809/9/3 803/9/3 808/9/3
f 810/9/3 803/9/3 809/9/3
f 812/7/3 790/7/3 805/7/3
f 813/7/3 790/7/3 812/7/3
f 817/7/3 810/7/3 809/7/3
f 818/9/3 811/9/3 810/9/3
f 818/7/3 810/7/3 817/7/3
f 819/9/3 811/9/3 818/9/3
f 820/8/3 815/8/3 814/8/3
f 821/8/3 815/8/3 820/8/3
f 822/8/3 817/8/3 816/8/3
f 823/7/3 818/7/3 817/7/3
f 823/8/3 817/8/3 822/8/3
f 824/7/3 818/7/3 823/7/3
f 827/6/3 793/6/3 807/6/3
f 828/8/3 824/8/3 823/8/3
f 829/6/3 825/6/3 824/6/3
f 829/8/3 824/8/3 828/8/3
f 830/6/3 825/6/3 829/6/3
f 834/6/3 827/6/3 826/6/3
f 835/6/3 793/6/3 827/6/3
f 835/6/3 827/6/3 834/6/3
f 836/8/3 830/8/3 829/8/3
f 836/8/3 831/8/3 830/8/3
f 837/8/3 831/8/3 836/8/3
f 839/7/3 833/7/3 832/7/3
f 842/7/3 839/7/3 838/7/3
f 843/8/3 841/8/3 840/8/3
f 843/7/3 842/7/3 841/7/3
f 844/7/3 839/7/3 842/7/3
f 844/7/3 842/7/3 843/7/3
f 845/8/3 843/8/3 840/8/3
f 845/8/3 844/8/3 843/8/3
f 846/7/3 839/7/3 844/7/3
f 846/8/3 844/8/3 845/8/3
f 847/7/3 833/7/3 839/7/3
f 847/7/3 839/7/3 846/7/3
f 848/7/3 833/7/3 847/7/3
f 849/7/3 847/7/3 846/7/3
f 850/6/3 848/6/3 847/6/3
f 850/7/3 847/7/3 849/7/3
f 851/6/3 848/6/3 850/6/3
f 854/3/3 853/3/3 852/3/3
f 855/3/3 853/3/3 854/3/3
f 859/3/3 856/3/3 855/3/3
f 860/3/3 856/3/3 859/3/3
f 861/10/3 858/10/3 857/10/3
f 862/10/3 858/10/3 861/10/3
f 866/3/3 864/3/3 863/3/3
f 867/3/3 864/3/3 866/3/3
f 868/3/3 866/3/3 865/3/3
f 869/3/3 866/3/3 868/3/3
f 870/5/3 869/5/3 868/5/3
f 871/5/3 869/5/3 870/5/3
f 872/4/3 871/4/3 870/4/3
f 873/4/3 871/4/3 872/4/3
f 878/4/3 875/4/3 874/4/3
f 879/4/3 875/4/3 878/4/3
f 882/6/3 877/6/3 876/6/3
f 883/6/3 877/6/3 882/6/3
f 884/6/3 882/6/3 876/6/3
f 885/8/3 881/8/3 880/8/3
f 886/8/3 881/8/3 885/8/3
f 888/6/3 882/6/3 884/6/3
f 889/8/3 883/8/3 882/8/3
f 889/6/3 882/6/3 888/6/3
f 890/8/3 883/8/3 889/8/3
f 891/6/3 888/6/3 887/6/3
f 891/6/3 889/6/3 888/6/3
f 892/6/3 889/6/3 891/6/3
f 893/7/3 887/7/3 886/7/3
f 894/6/3 891/6/3 887/6/3
f 894/7/3 887/7/3 893/7/3
f 895/6/3 891/6/3 894/6/3
f 898/3/3 897/3/3 896/3/3
f 899/3/3 897/3/3 898/3/3
f 902/9/3 901/9/3 900/9/3
f 903/9/3 901/9/3 902/9/3
f 904/8/3 903/8/3 902/8/3
f 905/8/3 903/8/3 904/8/3
f 911/8/3 909/8/3 908/8/3
f 912/8/3 909/8/3 911/8/3
f 913/8/3 907/8/3 906/8/3
f 916/8/3 911/8/3 910/8/3
f 917/8/3 913/8/3 906/8/3
f 918/7/3 915/7/3 914/7/3
f 918/8/3 913/8/3 917/8/3
f 918/7/3 914/7/3 913/7/3
f 919/7/3 915/7/3 918/7/3
f 920/6/3 916/6/3 915/6/3
f 920/7/3 915/7/3 919/7/3
f 921/8/3 911/8/3 916/8/3
f 921/6/3 916/6/3 920/6/3
f 922/8/3 911/8/3 921/8/3
f 923/8/3 919/8/3 918/8/3
f 924/7/3 920/7/3 919/7/3
f 924/8/3 919/8/3 923/8/3
f 925/8/3 921/8/3 920/8/3
f 925/7/3 920/7/3 924/7/3
f 926/8/3 925/8/3 924/8/3
f 927/8/3 921/8/3 925/8/3
f 927/8/3 925/8/3 926/8/3
f 930/8/3 929/8/3 928/8/3
f 932/8/3 930/8/3 928/8/3
f 932/9/3 931/9/3 930/9/3
f 933/9/3 931/9/3 932/9/3
f 936/7/3 933/7/3 932/7/3
f 939/9/3 935/9/3 934/9/3
f 940/9/3 935/9/3 939/9/3
f 943/9/3 939/9/3 938/9/3
f 944/7/3 940/7/3 939/7/3
f 944/9/3 939/9/3 943/9/3
f 945/8/3 932/8/3 928/8/3
f 945/7/3 937/7/3 936/7/3
f 945/7/3 936/7/3 932/7/3
f 946/7/3 937/7/3 945/7/3
f 947/7/3 942/7/3 941/7/3
f 947/9/3 943/9/3 942/9/3
f 948/7/3 944/7/3 943/7/3
f 948/9/3 943/9/3 947/9/3
f 949/8/3 945/8/3 928/8/3
f 950/8/3 945/8/3 949/8/3
f 951/7/3 947/7/3 941/7/3
f 951/7/3 948/7/3 947/7/3
f 952/7/3 944/7/3 948/7/3
f 952/7/3 948/7/3 951/7/3
f 953/7/3 940/7/3 944/7/3
f 953/7/3 944/7/3 952/7/3
f 954/7/3 940/7/3 953/7/3
f 955/6/3 953/6/3 952/6/3
f 956/8/3 954/8/3 953/8/3
f 956/6/3 953/6/3 955/6/3
f 957/8/3 954/8/3 956/8/3
f 960/8/3 959/8/3 958/8/3
f 961/8/3 960/8/3 958/8/3
f 962/8/3 960/8/3 961/8/3
f 965/9/3 964/9/3 963/9/3
f 966/9/3 964/9/3 965/9/3
f 969/9/3 968/9/3 967/9/3
f 970/9/3 968/9/3 969/9/3
f 972/9/3 971/9/3 970/9/3
f 973/9/3 971/9/3 972/9/3
f 974/9/3 971/9/3 973/9/3
f 977/7/3 973/7/3 972/7/3
f 978/7/3 973/7/3 977/7/3
f 979/8/3 976/8/3 975/8/3
f 980/8/3 976/8/3 979/8/3
f 981/8/3 978/8/3 977/8/3
f 982/8/3 978/8/3 981/8/3
f 985/8/3 983/8/3 982/8/3
f 986/6/3 984/6/3 983/6/3
f 986/8/3 983/8/3 985/8/3
f 987/6/3 984/6/3 986/6/3
f 989/8/3 988/8/3 987/8/3
f 989/8/3 987/8/3 986/8/3
f 990/8/3 988/8/3 989/8/3
f 993/9/3 992/9/3 991/9/3
f 994/9/3 992/9/3 993/9/3
f 998/2/3 997/2/3 996/2/3
f 999/2/3 997/2/3 998/2/3
f 1000/8/3 994/8/3 993/8/3
f 1001/9/3 995/9/3 994/9/3
f 1001/8/3 994/8/3 1000/8/3
f 1002/9/3 995/9/3 1001/9/3
f 1004/9/3 1003/9/3 1002/9/3
f 1004/8/3 1002/8/3 1001/8/3
f 1005/9/3 1003/9/3 1004/9/3
f 1008/8/3 1004/8/3 1001/8/3
f 1009/8/3 1004/8/3 1008/8/3
f 1010/3/3 1007/3/3 1006/3/3
f 1011/3/3 1007/3/3 1010/3/3
f 1013/5/3 1011/5/3 1010/5/3
f 1014/2/3 1012/2/3 1011/2/3
f 1014/5/3 1011/5/3 1013/5/3
f 1015/2/3 1012/2/3 1014/2/3
f 1018/2/3 1017/2/3 1016/2/3
f 1019/2/3 1017/2/3 1018/2/3
f 1020/9/4 1021/9/4 1022/9/4
f 1022/9/4 1021/9/4 1023/9/4
f 1025/2/4 1026/2/4 1027/2/4
f 1027/2/4 1026/2/4 1028/2/4
f 1022/8/4 1023/8/4 1029/8/4
f 1023/9/4 1024/9/4 1030/9/4
f 1029/8/4 1023/8/4 1030/8/4
f 1030/9/4 1024/9/4 1031/9/4
f 1030/8/4 1031/8/4 1032/8/4
f 1030/8/4 1032/8/4 1033/8/4
f 1033/8/4 1032/8/4 1034/8/4
f 1035/5/4 1036/5/4 1038/5/4
f 1036/2/4 1037/2/4 1039/2/4
f 1038/5/4 1036/5/4 1039/5/4
f 1039/2/4 1037/2/4 1040/2/4
f 1041/2/4 1042/2/4 1043/2/4
f 1043/2/4 1042/2/4 1044/2/4
f 1045/9/4 1046/9/4 1047/9/4
f 1047/9/4 1046/9/4 1048/9/4
f 1049/9/4 1050/9/4 1051/9/4
f 1051/9/4 1050/9/4 1052/9/4
f 1052/9/4 1053/9/4 1054/9/4
f 1054/9/4 1053/9/4 1055/9/4
f 1055/9/4 1053/9/4 1056/9/4
f 1054/7/4 1055/7/4 1059/7/4
f 1059/7/4 1055/7/4 1060/7/4
f 1057/8/4 1058/8/4 1062/8/4
f 1062/8/4 1058/8/4 1063/8/4
f 1059/8/4 1060/8/4 1064/8/4
f 1060/7/4 1061/7/4 1065/7/4
f 1064/8/4 1060/8/4 1065/8/4
f 1065/7/4 1061/7/4 1066/7/4
f 1065/8/4 1066/8/4 1068/8/4
f 1066/6/4 1067/6/4 1069/6/4
f 1068/8/4 1066/8/4 1069/8/4
f 1069/6/4 1067/6/4 1070/6/4
f 1070/8/4 1071/8/4 1072/8/4
f 1069/8/4 1070/8/4 1072/8/4
f 1072/8/4 1071/8/4 1073/8/4
f 1074/8/4 1075/8/4 1076/8/4
f 1074/8/4 1076/8/4 1078/8/4
f 1076/9/4 1077/9/4 1078/9/4
f 1078/9/4 1077/9/4 1079/9/4
f 1078/7/4 1079/7/4 1082/7/4
f 1080/9/4 1081/9/4 1085/9/4
f 1085/9/4 1081/9/4 1086/9/4
f 1084/9/4 1085/9/4 1089/9/4
f 1085/7/4 1086/7/4 1090/7/4
f 1089/9/4 1085/9/4 1090/9/4
f 1074/8/4 1078/8/4 1091/8/4
f 1082/7/4 1083/7/4 1091/7/4
f 1078/7/4 1082/7/4 1091/7/4
f 1091/7/4 1083/7/4 1092/7/4
f 1087/7/4 1088/7/4 1093/7/4
f 1088/9/4 1089/9/4 1094/9/4
f 1093/7/4 1088/7/4 1094/7/4
f 1089/7/4 1090/7/4 1095/7/4
f 1094/9/4 1089/9/4 1095/9/4
f 1074/8/4 1091/8/4 1096/8/4
f 1096/8/4 1091/8/4 1097/8/4
f 1094/7/4 1095/7/4 1098/7/4
f 1095/7/4 1090/7/4 1099/7/4
f 1098/7/4 1095/7/4 1099/7/4
f 1090/7/4 1086/7/4 1100/7/4
f 1099/7/4 1090/7/4 1100/7/4
f 1100/7/4 1086/7/4 1101/7/4
f 1099/6/4 1100/6/4 1102/6/4
f 1100/8/4 1101/8/4 1103/8/4
f 1102/6/4 1100/6/4 1103/6/4
f 1103/8/4 1101/8/4 1104/8/4
f 1105/8/4 1106/8/4 1107/8/4
f 1105/8/4 1107/8/4 1108/8/4
f 1108/8/4 1107/8/4 1109/8/4
f 1110/3/4 1111/3/4 1112/3/4
f 1112/3/4 1111/3/4 1113/3/4
f 1114/9/4 1115/9/4 1116/9/4
f 1116/9/4 1115/9/4 1117/9/4
f 1116/8/4 1117/8/4 1118/8/4
f 1118/8/4 1117/8/4 1119/8/4
f 1122/8/4 1123/8/4 1125/8/4
f 1125/8/4 1123/8/4 1126/8/4
f 1120/8/4 1121/8/4 1127/8/4
f 1120/8/4 1127/8/4 1130/8/4
f 1128/7/4 1129/7/4 1131/7/4
f 1130/8/4 1127/8/4 1131/8/4
f 1127/7/4 1128/7/4 1131/7/4
f 1131/7/4 1129/7/4 1132/7/4
f 1132/7/4 1129/7/4 1133/7/4
f 1124/8/4 1125/8/4 1134/8/4
f 1134/8/4 1125/8/4 1135/8/4
f 1131/8/4 1132/8/4 1136/8/4
f 1132/7/4 1133/7/4 1137/7/4
f 1136/8/4 1132/8/4 1137/8/4
f 1133/8/4 1134/8/4 1138/8/4
f 1137/7/4 1133/7/4 1138/7/4
f 1137/8/4 1138/8/4 1139/8/4
f 1138/8/4 1134/8/4 1140/8/4
f 1139/8/4 1138/8/4 1140/8/4
f 1141/3/4 1142/3/4 1143/3/4
f 1143/3/4 1142/3/4 1144/3/4
f 1144/3/4 1145/3/4 1148/3/4
f 1148/3/4 1145/3/4 1149/3/4
f 1146/10/4 1147/10/4 1150/10/4
f 1150/10/4 1147/10/4 1151/10/4
f 1152/3/4 1153/3/4 1155/3/4
f 1155/3/4 1153/3/4 1156/3/4
f 1154/3/4 1155/3/4 1157/3/4
f 1157/3/4 1155/3/4 1158/3/4
f 1157/5/4 1158/5/4 1159/5/4
f 1159/5/4 1158/5/4 1160/5/4
f 1159/4/4 1160/4/4 1161/4/4
f 1161/4/4 1160/4/4 1162/4/4
f 1163/4/4 1164/4/4 1167/4/4
f 1167/4/4 1164/4/4 1168/4/4
f 1165/6/4 1166/6/4 1171/6/4
f 1171/6/4 1166/6/4 1172/6/4
f 1165/6/4 1171/6/4 1173/6/4
f 1171/8/4 1172/8/4 1174/8/4
f 1173/6/4 1171/6/4 1174/6/4
f 1169/8/4 1170/8/4 1175/8/4
f 1175/8/4 1170/8/4 1176/8/4
f 1174/8/4 1172/8/4 1178/8/4
f 1178/8/4 1172/8/4 1179/8/4
f 1177/6/4 1178/6/4 1180/6/4
f 1180/6/4 1178/6/4 1181/6/4
f 1176/7/4 1177/7/4 1182/7/4
f 1177/6/4 1180/6/4 1183/6/4
f 1182/7/4 1177/7/4 1183/7/4
f 1183/6/4 1180/6/4 1184/6/4
f 1184/6/4 1180/6/4 1185/6/4
f 1185/6/4 1180/6/4 1186/6/4
f 1187/5/4 1188/5/4 1189/5/4
f 1189/5/4 1188/5/4 1190/5/4
f 1191/3/4 1192/3/4 1193/3/4
f 1193/3/4 1192/3/4 1194/3/4
f 1195/11/4 1196/11/4 1198/11/4
f 1196/1/4 1197/1/4 1198/1/4
f 1198/1/4 1197/1/4 1199/1/4
f 1195/11/4 1198/11/4 1201/11/4
f 1198/11/4 1199/11/4 1201/11/4
f 1199/5/4 1200/5/4 1202/5/4
f 1201/11/4 1199/11/4 1202/11/4
f 1202/5/4 1200/5/4 1203/5/4
f 1204/8/4 1205/8/4 1211/8/4
f 1211/8/4 1205/8/4 1212/8/4
f 1206/6/4 1207/6/4 1213/6/4
f 1207/6/4 1208/6/4 1213/6/4
f 1213/6/4 1208/6/4 1214/6/4
f 1209/9/4 1210/9/4 1215/9/4
f 1215/9/4 1210/9/4 1216/9/4
f 1214/6/4 1208/6/4 1218/6/4
f 1218/6/4 1208/6/4 1219/6/4
f 1216/9/4 1217/9/4 1220/9/4
f 1220/9/4 1217/9/4 1221/9/4
f 1221/9/4 1217/9/4 1222/9/4
f 1221/7/4 1222/7/4 1227/7/4
f 1222/9/4 1223/9/4 1228/9/4
f 1227/7/4 1222/7/4 1228/7/4
f 1228/9/4 1223/9/4 1229/9/4
f 1224/8/4 1225/8/4 1230/8/4
f 1230/8/4 1225/8/4 1231/8/4
f 1226/8/4 1227/8/4 1232/8/4
f 1227/7/4 1228/7/4 1233/7/4
f 1232/8/4 1227/8/4 1233/8/4
f 1233/7/4 1228/7/4 1234/7/4
f 1219/6/4 1208/6/4 1237/6/4
f 1233/8/4 1234/8/4 1238/8/4
f 1234/6/4 1235/6/4 1239/6/4
f 1238/8/4 1234/8/4 1239/8/4
f 1239/6/4 1235/6/4 1240/6/4
f 1236/6/4 1237/6/4 1244/6/4
f 1237/6/4 1208/6/4 1245/6/4
f 1244/6/4 1237/6/4 1245/6/4
f 1239/8/4 1240/8/4 1246/8/4
f 1240/8/4 1241/8/4 1246/8/4
f 1246/8/4 1241/8/4 1247/8/4
f 1242/7/4 1243/7/4 1249/7/4
f 1248/7/4 1249/7/4 1252/7/4
f 1250/8/4 1251/8/4 1253/8/4
f 1251/7/4 1252/7/4 1253/7/4
f 1252/7/4 1249/7/4 1254/7/4
f 1253/7/4 1252/7/4 1254/7/4
f 1250/8/4 1253/8/4 1255/8/4
f 1253/8/4 1254/8/4 1255/8/4
f 1254/7/4 1249/7/4 1256/7/4
f 1255/8/4 1254/8/4 1256/8/4
f 1249/7/4 1243/7/4 1257/7/4
f 1256/7/4 1249/7/4 1257/7/4
f 1257/7/4 1243/7/4 1258/7/4
f 1256/7/4 1257/7/4 1260/7/4
f 1258/6/4 1259/6/4 1261/6/4
f 1260/7/4 1257/7/4 1261/7/4
f 1257/6/4 1258/6/4 1261/6/4
f 1261/6/4 1259/6/4 1262/6/4
f 1263/5/4 1264/5/4 1267/5/4
f 1267/5/4 1268/5/4 1271/5/4
f 1269/9/4 1270/9/4 1273/9/4
f 1273/9/4 1270/9/4 1274/9/4
f 1265/5/4 1266/5/4 1278/5/4
f 1263/5/4 1267/5/4 1279/5/4
f 1267/5/4 1271/5/4 1279/5/4
f 1271/3/4 1272/3/4 1280/3/4
f 1279/5/4 1271/5/4 1280/5/4
f 1280/3/4 1272/3/4 1281/3/4
f 1276/9/4 1277/9/4 1284/9/4
f 1277/5/4 1278/5/4 1285/5/4
f 1284/9/4 1277/9/4 1285/9/4
f 1278/5/4 1266/5/4 1286/5/4
f 1285/5/4 1278/5/4 1286/5/4
f 1263/5/4 1279/5/4 1287/5/4
f 1280/5/4 1281/5/4 1288/5/4
f 1281/2/4 1282/2/4 1289/2/4
f 1288/5/4 1281/5/4 1289/5/4
f 1289/2/4 1282/2/4 1290/2/4
f 1273/8/4 1274/8/4 1291/8/4
f 1274/9/4 1275/9/4 1292/9/4
f 1291/8/4 1274/8/4 1292/8/4
f 1292/9/4 1275/9/4 1293/9/4
f 1283/9/4 1284/9/4 1294/9/4
f 1284/9/4 1285/9/4 1294/9/4
f 1294/9/4 1285/9/4 1295/9/4
f 1285/10/4 1286/10/4 1296/10/4
f 1295/9/4 1285/9/4 1296/9/4
f 1286/5/4 1287/5/4 1297/5/4
f 1287/5/4 1279/5/4 1297/5/4
f 1297/5/4 1279/5/4 1298/5/4
f 1292/8/4 1293/8/4 1300/8/4
f 1294/9/4 1295/9/4 1300/9/4
f 1293/9/4 1294/9/4 1300/9/4
f 1300/9/4 1295/9/4 1301/9/4
f 1296/10/4 1286/10/4 1302/10/4
f 1295/10/4 1296/10/4 1302/10/4
f 1286/5/4 1297/5/4 1303/5/4
f 1302/10/4 1286/10/4 1303/10/4
f 1297/3/4 1298/3/4 1304/3/4
f 1303/5/4 1297/5/4 1304/5/4
f 1298/5/4 1299/5/4 1305/5/4
f 1304/3/4 1298/3/4 1305/3/4
f 1305/5/4 1299/5/4 1306/5/4
f 1306/5/4 1299/5/4 1307/5/4
f 1300/8/4 1301/8/4 1308/8/4
f 1292/8/4 1300/8/4 1308/8/4
f 1308/8/4 1301/8/4 1309/8/4
f 1303/5/4 1304/5/4 1310/5/4
f 1302/5/4 1303/5/4 1310/5/4
f 1304/5/4 1305/5/4 1310/5/4
f 1305/5/4 1306/5/4 1310/5/4
f 1306/3/4 1307/3/4 1311/3/4
f 1310/5/4 1306/5/4 1311/5/4
f 1311/3/4 1307/3/4 1312/3/4
f 1295/10/4 1302/10/4 1314/10/4
f 1302/5/4 1310/5/4 1315/5/4
f 1314/10/4 1302/10/4 1315/10/4
f 1310/6/4 1311/6/4 1316/6/4
f 1315/5/4 1310/5/4 1316/5/4
f 1311/5/4 1312/5/4 1317/5/4
f 1316/6/4 1311/6/4 1317/6/4
f 1312/2/4 1313/2/4 1318/2/4
f 1317/5/4 1312/5/4 1318/5/4
f 1318/2/4 1313/2/4 1319/2/4
f 1309/8/4 1301/8/4 1322/8/4
f 1301/9/4 1295/9/4 1323/9/4
f 1322/8/4 1301/8/4 1323/8/4
f 1295/10/4 1314/10/4 1324/10/4
f 1323/9/4 1295/9/4 1324/9/4
f 1316/6/4 1317/6/4 1325/6/4
f 1324/10/4 1314/10/4 1325/10/4
f 1314/6/4 1315/6/4 1325/6/4
f 1315/6/4 1316/6/4 1325/6/4
f 1325/6/4 1317/6/4 1326/6/4
f 1326/6/4 1317/6/4 1327/6/4
f 1325/6/4 1326/6/4 1328/6/4
f 1326/2/4 1327/2/4 1329/2/4
f 1328/6/4 1326/6/4 1329/6/4
f 1329/2/4 1327/2/4 1330/2/4
f 1320/8/4 1321/8/4 1331/8/4
f 1325/6/4 1328/6/4 1333/6/4
f 1328/4/4 1329/4/4 1334/4/4
f 1333/6/4 1328/6/4 1334/6/4
f 1334/4/4 1329/4/4 1335/4/4
f 1331/9/4 1332/9/4 1336/9/4
f 1320/8/4 1331/8/4 1336/8/4
f 1336/9/4 1332/9/4 1337/9/4
f 1322/9/4 1323/9/4 1339/9/4
f 1325/6/4 1333/6/4 1340/6/4
f 1336/7/4 1337/7/4 1342/7/4
f 1338/9/4 1339/9/4 1345/9/4
f 1339/9/4 1323/9/4 1346/9/4
f 1345/9/4 1339/9/4 1346/9/4
f 1323/7/4 1324/7/4 1347/7/4
f 1346/9/4 1323/9/4 1347/9/4
f 1324/7/4 1325/7/4 1347/7/4
f 1347/7/4 1325/7/4 1348/7/4
f 1340/6/4 1341/6/4 1349/6/4
f 1342/7/4 1343/7/4 1351/7/4
f 1344/9/4 1345/9/4 1354/9/4
f 1345/7/4 1346/7/4 1355/7/4
f 1354/9/4 1345/9/4 1355/9/4
f 1346/9/4 1347/9/4 1356/9/4
f 1355/7/4 1346/7/4 1356/7/4
f 1347/9/4 1348/9/4 1356/9/4
f 1348/7/4 1325/7/4 1357/7/4
f 1356/9/4 1348/9/4 1357/9/4
f 1349/6/4 1350/6/4 1358/6/4
f 1357/7/4 1325/7/4 1358/7/4
f 1325/6/4 1340/6/4 1358/6/4
f 1340/6/4 1349/6/4 1358/6/4
f 1320/8/4 1336/8/4 1359/8/4
f 1351/7/4 1352/7/4 1359/7/4
f 1342/7/4 1351/7/4 1359/7/4
f 1336/7/4 1342/7/4 1359/7/4
f 1359/7/4 1352/7/4 1360/7/4
f 1353/9/4 1354/9/4 1362/9/4
f 1355/7/4 1356/7/4 1363/7/4
f 1356/7/4 1357/7/4 1363/7/4
f 1362/9/4 1354/9/4 1363/9/4
f 1354/7/4 1355/7/4 1363/7/4
f 1363/7/4 1357/7/4 1364/7/4
f 1357/6/4 1358/6/4 1365/6/4
f 1364/7/4 1357/7/4 1365/7/4
f 1320/8/4 1359/8/4 1366/8/4
f 1366/8/4 1359/8/4 1367/8/4
f 1361/7/4 1362/7/4 1368/7/4
f 1363/7/4 1364/7/4 1368/7/4
f 1362/7/4 1363/7/4 1368/7/4
f 1368/7/4 1364/7/4 1369/7/4
f 1369/7/4 1364/7/4 1370/7/4
f 1370/7/4 1364/7/4 1371/7/4
f 1364/6/4 1365/6/4 1372/6/4
f 1371/7/4 1364/7/4 1372/7/4
f 1365/6/4 1358/6/4 1373/6/4
f 1372/6/4 1365/6/4 1373/6/4
f 1358/6/4 1350/6/4 1374/6/4
f 1373/6/4 1358/6/4 1374/6/4
f 1374/6/4 1350/6/4 1375/6/4
f 1375/6/4 1350/6/4 1376/6/4
f 1369/6/4 1370/6/4 1377/6/4
f 1370/8/4 1371/8/4 1378/8/4
f 1377/6/4 1370/6/4 1378/6/4
f 1378/8/4 1371/8/4 1379/8/4
f 1371/6/4 1372/6/4 1380/6/4
f 1379/8/4 1371/8/4 1380/8/4
f 1372/6/4 1373/6/4 1380/6/4
f 1373/8/4 1374/8/4 1381/8/4
f 1380/6/4 1373/6/4 1381/6/4
f 1374/6/4 1375/6/4 1382/6/4
f 1381/8/4 1374/8/4 1382/8/4
f 1382/6/4 1375/6/4 1383/6/4
f 1379/8/4 1380/8/4 1384/8/4
f 1380/8/4 1381/8/4 1384/8/4
f 1384/8/4 1381/8/4 1385/8/4
f 1385/8/4 1381/8/4 1386/8/4
f 1386/8/4 1381/8/4 1387/8/4
f 1385/8/4 1386/8/4 1388/8/4
f 1388/8/4 1386/8/4 1389/8/4
f 1392/8/5 1391/8/5 1390/8/5
f 1393/8/5 1391/8/5 1392/8/5
f 1396/8/5 1395/8/5 1394/8/5
f 1397/8/5 1395/8/5 1396/8/5
f 1400/8/5 1399/8/5 1398/8/5
f 1401/8/5 1399/8/5 1400/8/5
f 1404/8/5 1403/8/5 1402/8/5
f 1405/8/5 1403/8/5 1404/8/5
f 1410/8/5 1407/8/5 1406/8/5
f 1411/8/5 1407/8/5 1410/8/5
f 1412/7/5 1409/7/5 1408/7/5
f 1413/7/5 1409/7/5 1412/7/5
f 1416/7/5 1415/7/5 1414/7/5
f 1417/7/5 1415/7/5 1416/7/5
f 1418/7/5 1415/7/5 1417/7/5
f 1420/8/5 1419/8/5 1418/8/5
f 1421/8/5 1419/8/5 1420/8/5
f 1424/7/5 1423/7/5 1422/7/5
f 1425/7/5 1423/7/5 1424/7/5
f 1430/8/5 1427/8/5 1426/8/5
f 1431/8/5 1427/8/5 1430/8/5
f 1432/7/5 1429/7/5 1428/7/5
f 1433/7/5 1429/7/5 1432/7/5
f 1438/8/5 1435/8/5 1434/8/5
f 1439/8/5 1435/8/5 1438/8/5
f 1440/7/5 1437/7/5 1436/7/5
f 1441/7/5 1437/7/5 1440/7/5
f 1444/9/5 1443/9/5 1442/9/5
f 1445/9/5 1443/9/5 1444/9/5
f 1454/9/5 1447/9/5 1446/9/5
f 1455/8/5 1448/8/5 1447/8/5
f 1455/9/5 1447/9/5 1454/9/5
f 1456/8/5 1448/8/5 1455/8/5
f 1457/9/5 1450/9/5 1449/9/5
f 1457/7/5 1451/7/5 1450/7/5
f 1458/7/5 1451/7/5 1457/7/5
f 1459/6/5 1453/6/5 1452/6/5
f 1460/6/5 1453/6/5 1459/6/5
f 1463/9/5 1457/9/5 1449/9/5
f 1464/9/5 1457/9/5 1463/9/5
f 1465/6/5 1462/6/5 1461/6/5
f 1466/6/5 1462/6/5 1465/6/5
f 1471/6/5 1470/6/5 1469/6/5
f 1472/6/5 1470/6/5 1471/6/5
f 1478/9/5 1474/9/5 1473/9/5
f 1479/8/5 1475/8/5 1474/8/5
f 1479/9/5 1474/9/5 1478/9/5
f 1480/8/5 1475/8/5 1479/8/5
f 1481/9/5 1468/9/5 1467/9/5
f 1482/9/5 1468/9/5 1481/9/5
f 1483/6/5 1477/6/5 1476/6/5
f 1484/6/5 1477/6/5 1483/6/5
f 1489/8/5 1486/8/5 1485/8/5
f 1490/8/5 1486/8/5 1489/8/5
f 1491/9/5 1488/9/5 1487/9/5
f 1492/9/5 1488/9/5 1491/9/5
f 1497/8/5 1496/8/5 1495/8/5
f 1498/8/5 1496/8/5 1497/8/5
f 1499/9/5 1494/9/5 1493/9/5
f 1500/9/5 1494/9/5 1499/9/5
f 1510/9/5 1504/9/5 1503/9/5
f 1511/8/5 1505/8/5 1504/8/5
f 1511/9/5 1504/9/5 1510/9/5
f 1512/8/5 1507/8/5 1506/8/5
f 1515/8/5 1502/8/5 1501/8/5
f 1516/8/5 1509/8/5 1508/8/5
f 1517/8/5 1509/8/5 1516/8/5
f 1518/8/5 1512/8/5 1506/8/5
f 1518/9/5 1513/9/5 1512/9/5
f 1519/7/5 1514/7/5 1513/7/5
f 1519/9/5 1513/9/5 1518/9/5
f 1520/8/5 1515/8/5 1514/8/5
f 1520/7/5 1514/7/5 1519/7/5
f 1521/8/5 1502/8/5 1515/8/5
f 1521/8/5 1515/8/5 1520/8/5
f 1524/8/5 1505/8/5 1511/8/5
f 1525/8/5 1505/8/5 1524/8/5
f 1526/8/5 1518/8/5 1506/8/5
f 1527/8/5 1518/8/5 1526/8/5
f 1528/8/5 1523/8/5 1522/8/5
f 1529/8/5 1523/8/5 1528/8/5
f 1530/8/5 1502/8/5 1521/8/5
f 1531/8/5 1502/8/5 1530/8/5
f 1536/8/5 1533/8/5 1532/8/5
f 1538/8/5 1535/8/5 1534/8/5
f 1541/8/5 1538/8/5 1534/8/5
f 1543/8/5 1540/8/5 1539/8/5
f 1544/8/5 1540/8/5 1543/8/5
f 1546/7/5 1542/7/5 1541/7/5
f 1546/8/5 1541/8/5 1534/8/5
f 1547/8/5 1545/8/5 1544/8/5
f 1547/7/5 1542/7/5 1546/7/5
f 1547/8/5 1544/8/5 1543/8/5
f 1547/8/5 1543/8/5 1542/8/5
f 1548/8/5 1545/8/5 1547/8/5
f 1549/8/5 1545/8/5 1548/8/5
f 1550/8/5 1545/8/5 1549/8/5
f 1553/8/5 1549/8/5 1548/8/5
f 1554/8/5 1549/8/5 1553/8/5
f 1555/9/5 1552/9/5 1551/9/5
f 1556/9/5 1552/9/5 1555/9/5
f 1557/8/5 1537/8/5 1536/8/5
f 1559/8/5 1546/8/5 1534/8/5
f 1560/8/5 1536/8/5 1532/8/5
f 1560/8/5 1557/8/5 1536/8/5
f 1561/9/5 1558/9/5 1557/9/5
f 1561/8/5 1557/8/5 1560/8/5
f 1562/9/5 1558/9/5 1561/9/5
f 1563/8/5 1559/8/5 1534/8/5
f 1564/8/5 1559/8/5 1563/8/5
f 1569/9/5 1566/9/5 1565/9/5
f 1571/7/5 1568/7/5 1567/7/5
f 1572/7/5 1568/7/5 1571/7/5
f 1574/7/5 1573/7/5 1572/7/5
f 1575/7/5 1573/7/5 1574/7/5
f 1580/8/5 1577/8/5 1576/8/5
f 1581/8/5 1577/8/5 1580/8/5
f 1582/9/5 1570/9/5 1569/9/5
f 1582/9/5 1569/9/5 1565/9/5
f 1583/9/5 1570/9/5 1582/9/5
f 1585/7/5 1579/7/5 1578/7/5
f 1586/7/5 1579/7/5 1585/7/5
f 1587/7/5 1585/7/5 1584/7/5
f 1588/7/5 1585/7/5 1587/7/5
f 1589/9/5 1582/9/5 1565/9/5
f 1590/9/5 1582/9/5 1589/9/5
f 1593/9/5 1592/9/5 1591/9/5
f 1594/9/5 1592/9/5 1593/9/5
f 1597/8/5 1596/8/5 1595/8/5
f 1598/8/5 1596/8/5 1597/8/5
f 1599/9/5 1593/9/5 1591/9/5
f 1600/9/5 1593/9/5 1599/9/5
f 1605/10/5 1602/10/5 1601/10/5
f 1606/10/5 1602/10/5 1605/10/5
f 1607/6/5 1604/6/5 1603/6/5
f 1608/6/5 1604/6/5 1607/6/5
f 1609/6/5 1604/6/5 1608/6/5
f 1612/6/5 1611/6/5 1610/6/5
f 1613/6/5 1611/6/5 1612/6/5
f 1619/5/5 1615/5/5 1614/5/5
f 1620/5/5 1617/5/5 1616/5/5
f 1621/5/5 1617/5/5 1620/5/5
f 1622/5/5 1619/5/5 1618/5/5
f 1623/5/5 1615/5/5 1619/5/5
f 1623/5/5 1619/5/5 1622/5/5
f 1624/5/5 1615/5/5 1623/5/5
f 1625/5/5 1615/5/5 1624/5/5
f 1628/5/5 1627/5/5 1626/5/5
f 1629/5/5 1627/5/5 1628/5/5
f 1631/5/5 1628/5/5 1626/5/5
f 1632/3/5 1631/3/5 1630/3/5
f 1633/5/5 1628/5/5 1631/5/5
f 1633/3/5 1631/3/5 1632/3/5
f 1634/5/5 1628/5/5 1633/5/5
f 1636/5/5 1634/5/5 1633/5/5
f 1636/5/5 1635/5/5 1634/5/5
f 1637/5/5 1635/5/5 1636/5/5
f 1640/3/5 1639/3/5 1638/3/5
f 1641/3/5 1639/3/5 1640/3/5
f 1644/3/5 1643/3/5 1642/3/5
f 1645/3/5 1643/3/5 1644/3/5
f 1648/5/5 1647/5/5 1646/5/5
f 1649/5/5 1647/5/5 1648/5/5
f 1652/5/5 1651/5/5 1650/5/5
f 1653/5/5 1651/5/5 1652/5/5
f 1656/8/6 1657/8/6 1658/8/6
f 1658/8/6 1657/8/6 1659/8/6
f 1654/8/6 1655/8/6 1662/8/6
f 1662/8/6 1655/8/6 1663/8/6
f 1660/8/6 1661/8/6 1664/8/6
f 1664/8/6 1661/8/6 1665/8/6
f 1668/8/6 1669/8/6 1670/8/6
f 1670/8/6 1669/8/6 1671/8/6
f 1666/8/6 1667/8/6 1674/8/6
f 1674/8/6 1667/8/6 1675/8/6
f 1672/8/6 1673/8/6 1676/8/6
f 1676/8/6 1673/8/6 1677/8/6
f 1678/9/6 1679/9/6 1681/9/6
f 1679/7/6 1680/7/6 1681/7/6
f 1681/7/6 1680/7/6 1682/7/6
f 1678/9/6 1681/9/6 1685/9/6
f 1683/8/6 1684/8/6 1687/8/6
f 1687/8/6 1684/8/6 1688/8/6
f 1678/9/6 1685/9/6 1689/9/6
f 1685/7/6 1686/7/6 1690/7/6
f 1689/9/6 1685/9/6 1690/9/6
f 1690/7/6 1686/7/6 1691/7/6
f 1692/9/6 1693/9/6 1695/9/6
f 1693/7/6 1694/7/6 1695/7/6
f 1695/7/6 1694/7/6 1696/7/6
f 1692/9/6 1695/9/6 1699/9/6
f 1697/8/6 1698/8/6 1701/8/6
f 1701/8/6 1698/8/6 1702/8/6
f 1692/9/6 1699/9/6 1703/9/6
f 1699/7/6 1700/7/6 1704/7/6
f 1703/9/6 1699/9/6 1704/9/6
f 1704/7/6 1700/7/6 1705/7/6
f 1706/7/6 1707/7/6 1709/7/6
f 1709/7/6 1707/7/6 1710/7/6
f 1708/9/6 1709/9/6 1711/9/6
f 1711/9/6 1709/9/6 1712/9/6
f 1712/7/6 1713/7/6 1715/7/6
f 1713/7/6 1714/7/6 1715/7/6
f 1715/7/6 1714/7/6 1716/7/6
f 1717/7/6 1718/7/6 1720/7/6
f 1720/7/6 1718/7/6 1721/7/6
f 1721/7/6 1718/7/6 1722/7/6
f 1719/9/6 1720/9/6 1723/9/6
f 1723/9/6 1720/9/6 1724/9/6
f 1724/7/6 1725/7/6 1726/7/6
f 1726/7/6 1725/7/6 1727/7/6
f 1728/7/6 1729/7/6 1730/7/6
f 1730/7/6 1729/7/6 1731/7/6
f 1732/7/6 1733/7/6 1734/7/6
f 1734/7/6 1733/7/6 1735/7/6
f 1736/9/6 1737/9/6 1738/9/6
f 1738/9/6 1737/9/6 1739/9/6
f 1740/9/6 1741/9/6 1742/9/6
f 1742/9/6 1741/9/6 1743/9/6
f 1744/9/6 1745/9/6 1746/9/6
f 1746/9/6 1745/9/6 1747/9/6
f 1748/8/6 1749/8/6 1750/8/6
f 1750/8/6 1749/8/6 1751/8/6
f 1752/8/6 1753/8/6 1756/8/6
f 1756/8/6 1753/8/6 1757/8/6
f 1754/9/6 1755/9/6 1758/9/6
f 1758/9/6 1755/9/6 1759/9/6
f 1760/9/6 1761/9/6 1762/9/6
f 1762/9/6 1761/9/6 1763/9/6
f 1764/9/6 1765/9/6 1766/9/6
f 1766/9/6 1765/9/6 1767/9/6
f 1768/9/6 1769/9/6 1772/9/6
f 1772/9/6 1769/9/6 1773/9/6
f 1770/8/6 1771/8/6 1774/8/6
f 1774/8/6 1771/8/6 1775/8/6
f 1776/8/6 1777/8/6 1778/8/6
f 1778/8/6 1777/8/6 1779/8/6
f 1780/9/6 1781/9/6 1786/9/6
f 1786/9/6 1781/9/6 1787/9/6
f 1782/9/6 1783/9/6 1788/9/6
f 1788/9/6 1783/9/6 1789/9/6
f 1784/8/6 1785/8/6 1790/8/6
f 1790/8/6 1785/8/6 1791/8/6
f 1792/8/6 1793/8/6 1794/8/6
f 1794/8/6 1793/8/6 1795/8/6
f 1796/10/6 1797/10/6 1798/10/6
f 1798/10/6 1797/10/6 1799/10/6
f 1800/7/6 1801/7/6 1803/7/6
f 1801/6/6 1802/6/6 1804/6/6
f 1803/7/6 1801/7/6 1804/7/6
f 1804/6/6 1802/6/6 1805/6/6
f 1806/7/6 1807/7/6 1808/7/6
f 1808/7/6 1807/7/6 1809/7/6
f 1810/6/6 1811/6/6 1812/6/6
f 1812/6/6 1811/6/6 1813/6/6
f 1814/6/6 1815/6/6 1816/6/6
f 1816/6/6 1815/6/6 1817/6/6
f 1818/8/6 1819/8/6 1821/8/6
f 1821/8/6 1819/8/6 1822/8/6
f 1820/6/6 1821/6/6 1823/6/6
f 1823/6/6 1821/6/6 1824/6/6
f 1825/6/6 1826/6/6 1827/6/6
f 1827/6/6 1826/6/6 1828/6/6
f 1829/5/6 1830/5/6 1836/5/6
f 1831/6/6 1832/6/6 1837/6/6
f 1837/6/6 1832/6/6 1838/6/6
f 1833/6/6 1834/6/6 1839/6/6
f 1839/6/6 1834/6/6 1840/6/6
f 1835/5/6 1836/5/6 1841/5/6
f 1836/5/6 1830/5/6 1841/5/6
f 1841/5/6 1830/5/6 1842/5/6
f 1843/6/6 1844/6/6 1845/6/6
f 1845/6/6 1844/6/6 1846/6/6
f 1846/8/6 1847/8/6 1849/8/6
f 1849/8/6 1847/8/6 1850/8/6
f 1835/5/6 1841/5/6 1851/5/6
f 1848/6/6 1849/6/6 1854/6/6
f 1854/6/6 1849/6/6 1855/6/6
f 1851/5/6 1852/5/6 1856/5/6
f 1835/5/6 1851/5/6 1856/5/6
f 1856/5/6 1852/5/6 1857/5/6
f 1853/6/6 1854/6/6 1862/6/6
f 1862/6/6 1854/6/6 1863/6/6
f 1857/5/6 1852/5/6 1864/5/6
f 1864/5/6 1852/5/6 1865/5/6
f 1858/6/6 1859/6/6 1866/6/6
f 1866/6/6 1859/6/6 1867/6/6
f 1860/6/6 1861/6/6 1868/6/6
f 1868/6/6 1861/6/6 1869/6/6
f 1870/6/6 1871/6/6 1872/6/6
f 1872/6/6 1871/6/6 1873/6/6
f 1874/6/6 1875/6/6 1877/6/6
f 1877/6/6 1875/6/6 1878/6/6
f 1875/8/6 1876/8/6 1879/8/6
f 1878/6/6 1875/6/6 1879/6/6
f 1879/8/6 1876/8/6 1880/8/6
f 1880/8/6 1881/8/6 1884/8/6
f 1879/8/6 1880/8/6 1884/8/6
f 1884/8/6 1881/8/6 1885/8/6
f 1885/8/6 1881/8/6 1886/8/6
f 1882/6/6 1883/6/6 1887/6/6
f 1883/6/6 1884/6/6 1887/6/6
f 1884/8/6 1885/8/6 1888/8/6
f 1887/6/6 1884/6/6 1888/6/6
f 1888/8/6 1885/8/6 1889/8/6
f 1890/6/6 1891/6/6 1892/6/6
f 1892/6/6 1891/6/6 1893/6/6
f 1894/5/6 1895/5/6 1898/5/6
f 1898/5/6 1895/5/6 1899/5/6
f 1896/4/6 1897/4/6 1901/4/6
f 1901/4/6 1897/4/6 1902/4/6
f 1902/6/6 1903/6/6 1904/6/6
f 1901/4/6 1902/4/6 1904/4/6
f 1904/6/6 1903/6/6 1905/6/6
f 1906/9/6 1907/9/6 1909/9/6
f 1907/8/6 1908/8/6 1910/8/6
f 1909/9/6 1907/9/6 1910/9/6
f 1910/8/6 1908/8/6 1911/8/6
f 1901/4/6 1904/4/6 1912/4/6
f 1900/6/6 1901/6/6 1916/6/6
f 1901/4/6 1912/4/6 1917/4/6
f 1916/6/6 1901/6/6 1917/6/6
f 1912/6/6 1913/6/6 1918/6/6
f 1917/4/6 1912/4/6 1918/4/6
f 1918/6/6 1913/6/6 1919/6/6
f 1914/5/6 1915/5/6 1920/5/6
f 1920/5/6 1915/5/6 1921/5/6
f 1917/4/6 1918/4/6 1922/4/6
f 1922/4/6 1918/4/6 1923/4/6
f 1926/5/6 1927/5/6 1931/5/6
f 1928/6/6 1929/6/6 1932/6/6
f 1929/2/6 1930/2/6 1933/2/6
f 1932/6/6 1929/6/6 1933/6/6
f 1933/2/6 1930/2/6 1934/2/6
f 1924/5/6 1925/5/6 1936/5/6
f 1936/5/6 1925/5/6 1937/5/6
f 1926/5/6 1931/5/6 1938/5/6
f 1931/6/6 1932/6/6 1939/6/6
f 1938/5/6 1931/5/6 1939/5/6
f 1932/6/6 1933/6/6 1939/6/6
f 1939/6/6 1933/6/6 1940/6/6
f 1940/6/6 1933/6/6 1941/6/6
f 1935/3/6 1936/3/6 1944/3/6
f 1944/3/6 1936/3/6 1945/3/6
f 1942/4/6 1943/4/6 1951/4/6
f 1951/4/6 1943/4/6 1952/4/6
f 1947/5/6 1948/5/6 1953/5/6
f 1949/6/6 1950/6/6 1954/6/6
f 1953/5/6 1948/5/6 1954/5/6
f 1948/6/6 1949/6/6 1954/6/6
f 1954/6/6 1950/6/6 1955/6/6
f 1955/6/6 1950/6/6 1956/6/6
f 1945/5/6 1946/5/6 1958/5/6
f 1958/5/6 1946/5/6 1959/5/6
f 1955/6/6 1956/6/6 1960/6/6
f 1956/2/6 1957/2/6 1961/2/6
f 1960/6/6 1956/6/6 1961/6/6
f 1961/2/6 1957/2/6 1962/2/6
f 1963/5/6 1964/5/6 1967/5/6
f 1967/5/6 1964/5/6 1968/5/6
f 1965/5/6 1966/5/6 1969/5/6
f 1969/5/6 1966/5/6 1972/5/6
f 1972/5/6 1966/5/6 1973/5/6
f 1970/3/6 1971/3/6 1977/3/6
f 1977/3/6 1971/3/6 1978/3/6
f 1973/3/6 1974/3/6 1980/3/6
f 1974/5/6 1975/5/6 1981/5/6
f 1980/3/6 1974/3/6 1981/3/6
f 1975/4/6 1976/4/6 1982/4/6
f 1981/5/6 1975/5/6 1982/5/6
f 1982/4/6 1976/4/6 1983/4/6
f 1979/5/6 1980/5/6 1986/5/6
f 1986/5/6 1980/5/6 1987/5/6
f 1984/5/6 1985/5/6 1989/5/6
f 1989/5/6 1985/5/6 1990/5/6
f 1986/5/6 1987/5/6 1991/5/6
f 1987/3/6 1988/3/6 1992/3/6
f 1991/5/6 1987/5/6 1992/5/6
f 1992/3/6 1988/3/6 1993/3/6
f 1994/2/6 1995/2/6 2000/2/6
f 2000/2/6 1995/2/6 2001/2/6
f 1998/5/6 1999/5/6 2002/5/6
f 1997/5/6 1998/5/6 2002/5/6
f 1997/5/6 2002/5/6 2004/5/6
f 2002/3/6 2003/3/6 2004/3/6
f 2004/3/6 2003/3/6 2005/3/6
f 1996/3/6 1997/3/6 2006/3/6
f 2006/3/6 1997/3/6 2007/3/6
f 1997/5/6 2004/5/6 2008/5/6
f 2007/3/6 1997/3/6 2008/3/6
f 2008/5/6 2004/5/6 2009/5/6
f 2009/5/6 2004/5/6 2010/5/6
f 2007/3/6 2008/3/6 2013/3/6
f 2013/3/6 2008/3/6 2014/3/6
f 2011/2/6 2012/2/6 2015/2/6
f 2015/2/6 2012/2/6 2016/2/6
f 2017/2/6 2018/2/6 2019/2/6
f 2019/2/6 2018/2/6 2020/2/6
f 2021/2/6 2022/2/6 2023/2/6
f 2023/2/6 2022/2/6 2024/2/6
